<svg xmlns="http://www.w3.org/2000/svg" xmlns:xlink="http://www.w3.org/1999/xlink" width="5000" zoomAndPan="magnify" viewBox="0 0 3750 3749.999967" height="5000" preserveAspectRatio="xMidYMid meet" version="1.0"><path fill="#ffffff" d="M 3241.640625 1103.976562 C 3259.503906 1068.460938 3271.773438 1023.753906 3270.523438 968.421875 C 3267.371094 828.925781 3187.890625 769.527344 3095.859375 700.757812 C 3024.453125 647.398438 2942.628906 578.140625 2900.003906 480.152344 C 2849.582031 364.238281 2881.457031 252.695312 2897.789062 212.753906 C 2921.945312 153.691406 2994.101562 81.875 3112.453125 152.894531 C 3134.179688 165.933594 3205.878906 218.082031 3205.878906 218.082031 L 3416.449219 286.980469 L 3242.105469 297.460938 L 3414.824219 350.011719 L 3179.820312 354.964844 C 3138.535156 374.519531 3116.503906 376.890625 3109.257812 378.835938 C 3091.484375 383.597656 3040.554688 393.40625 3057.1875 451.859375 C 3071.832031 503.332031 3124.734375 540.265625 3183.15625 583.921875 C 3284.917969 659.972656 3411.5625 754.601562 3416.316406 965.121094 C 3418.003906 1039.664062 3404.625 1103.570312 3384.160156 1157.171875 C 3328.445312 1303.089844 3138.8125 1316.375 3138.8125 1316.375 Z M 3241.640625 1103.976562 " fill-opacity="1" fill-rule="nonzero"/><path fill="#ffffff" d="M 3138.804688 1329.417969 C 3138.253906 1329.417969 3137.707031 1329.382812 3137.160156 1329.316406 C 3136.617188 1329.246094 3136.078125 1329.140625 3135.542969 1329.003906 C 3135.011719 1328.867188 3134.492188 1328.695312 3133.980469 1328.492188 C 3133.46875 1328.289062 3132.972656 1328.054688 3132.492188 1327.789062 C 3132.011719 1327.523438 3131.550781 1327.226562 3131.105469 1326.902344 C 3130.660156 1326.578125 3130.238281 1326.226562 3129.839844 1325.847656 C 3129.441406 1325.46875 3129.066406 1325.066406 3128.71875 1324.640625 C 3128.371094 1324.21875 3128.050781 1323.769531 3127.757812 1323.304688 C 3127.46875 1322.839844 3127.207031 1322.355469 3126.972656 1321.859375 C 3126.742188 1321.359375 3126.542969 1320.847656 3126.378906 1320.324219 C 3126.210938 1319.800781 3126.078125 1319.265625 3125.980469 1318.726562 C 3125.882812 1318.183594 3125.816406 1317.640625 3125.789062 1317.089844 C 3125.757812 1316.542969 3125.761719 1315.992188 3125.800781 1315.445312 C 3125.839844 1314.898438 3125.914062 1314.351562 3126.023438 1313.8125 C 3126.132812 1313.273438 3126.273438 1312.746094 3126.449219 1312.222656 C 3126.625 1311.703125 3126.832031 1311.195312 3127.070312 1310.699219 L 3229.90625 1098.296875 L 3229.992188 1098.121094 C 3249.308594 1059.71875 3258.558594 1016.179688 3257.488281 968.71875 C 3256.109375 907.808594 3239.820312 859.300781 3206.226562 816.0625 C 3175.535156 776.574219 3133.042969 744.820312 3088.054688 711.203125 C 3013.496094 655.488281 2931.433594 585.085938 2888.046875 485.351562 C 2831.222656 354.722656 2876.140625 231.246094 2885.722656 207.820312 C 2903.59375 164.125 2937.933594 130.160156 2977.585938 116.976562 C 3020.425781 102.730469 3068.0625 111.050781 3119.167969 141.714844 C 3139.53125 153.9375 3200.710938 198.210938 3211.890625 206.328125 L 3420.511719 274.59375 C 3421.230469 274.828125 3421.917969 275.121094 3422.582031 275.476562 C 3423.246094 275.828125 3423.875 276.238281 3424.46875 276.699219 C 3425.0625 277.164062 3425.613281 277.671875 3426.117188 278.230469 C 3426.625 278.789062 3427.078125 279.386719 3427.480469 280.023438 C 3427.878906 280.660156 3428.226562 281.324219 3428.511719 282.023438 C 3428.796875 282.71875 3429.023438 283.433594 3429.183594 284.167969 C 3429.347656 284.902344 3429.445312 285.648438 3429.480469 286.398438 C 3429.511719 287.152344 3429.480469 287.902344 3429.382812 288.648438 C 3429.289062 289.394531 3429.128906 290.125 3428.90625 290.847656 C 3428.683594 291.566406 3428.398438 292.257812 3428.054688 292.929688 C 3427.710938 293.597656 3427.3125 294.234375 3426.859375 294.835938 C 3426.40625 295.4375 3425.90625 295.992188 3425.355469 296.507812 C 3424.804688 297.019531 3424.214844 297.484375 3423.585938 297.894531 C 3422.957031 298.308594 3422.292969 298.664062 3421.601562 298.960938 C 3420.910156 299.257812 3420.199219 299.492188 3419.464844 299.667969 C 3418.734375 299.839844 3417.992188 299.949219 3417.242188 299.996094 L 3315.359375 306.117188 L 3418.625 337.539062 C 3419.359375 337.761719 3420.070312 338.050781 3420.757812 338.398438 C 3421.441406 338.75 3422.089844 339.15625 3422.703125 339.621094 C 3423.316406 340.085938 3423.886719 340.601562 3424.40625 341.167969 C 3424.929688 341.730469 3425.398438 342.339844 3425.8125 342.984375 C 3426.226562 343.632812 3426.582031 344.3125 3426.875 345.023438 C 3427.171875 345.734375 3427.398438 346.464844 3427.566406 347.21875 C 3427.730469 347.96875 3427.828125 348.730469 3427.859375 349.5 C 3427.886719 350.265625 3427.851562 351.03125 3427.746094 351.792969 C 3427.640625 352.558594 3427.46875 353.304688 3427.230469 354.035156 C 3426.996094 354.765625 3426.695312 355.472656 3426.332031 356.152344 C 3425.96875 356.828125 3425.550781 357.472656 3425.074219 358.078125 C 3424.597656 358.679688 3424.074219 359.238281 3423.5 359.75 C 3422.925781 360.261719 3422.308594 360.71875 3421.652344 361.121094 C 3420.996094 361.523438 3420.3125 361.867188 3419.597656 362.148438 C 3418.878906 362.429688 3418.144531 362.644531 3417.390625 362.796875 C 3416.636719 362.945312 3415.875 363.03125 3415.105469 363.046875 L 3182.855469 367.945312 C 3148.523438 383.9375 3127.167969 388.371094 3116.773438 390.523438 C 3115.035156 390.882812 3113.65625 391.160156 3112.628906 391.433594 C 3111.699219 391.683594 3110.675781 391.945312 3109.589844 392.226562 C 3098.101562 395.191406 3078.875 400.152344 3070.890625 414.082031 C 3066.058594 422.511719 3065.675781 434.027344 3069.726562 448.300781 C 3082.328125 492.574219 3128.042969 526.621094 3180.984375 566.046875 L 3190.960938 573.484375 C 3242.269531 611.828125 3300.425781 655.285156 3346.515625 716.238281 C 3400.078125 787.074219 3427.175781 868.394531 3429.355469 964.835938 C 3430.917969 1034.078125 3419.8125 1100.359375 3396.328125 1161.835938 C 3372.210938 1225 3320.015625 1274.027344 3245.386719 1303.621094 C 3228.460938 1310.363281 3211.152344 1315.894531 3193.453125 1320.210938 C 3175.753906 1324.523438 3157.839844 1327.585938 3139.710938 1329.386719 C 3139.410156 1329.410156 3139.109375 1329.417969 3138.804688 1329.417969 Z M 3253.332031 1109.746094 L 3161.105469 1300.234375 C 3186.945312 1295.769531 3212.0625 1288.726562 3236.457031 1279.105469 C 3304.710938 1251.875 3350.308594 1209.285156 3371.980469 1152.527344 C 3394.242188 1094.222656 3404.773438 1031.28125 3403.285156 965.421875 C 3401.234375 874.640625 3375.863281 798.277344 3325.71875 731.960938 C 3281.859375 673.945312 3225.277344 631.671875 3175.367188 594.367188 L 3165.425781 586.953125 C 3108.683594 544.699219 3059.679688 508.207031 3044.664062 455.429688 C 3038.609375 434.136719 3039.824219 415.867188 3048.285156 401.109375 C 3061.734375 377.644531 3088.636719 370.707031 3103.089844 366.976562 C 3104.097656 366.714844 3105.042969 366.472656 3105.898438 366.242188 C 3107.46875 365.824219 3109.246094 365.453125 3111.496094 364.988281 C 3121.15625 362.984375 3141.265625 358.816406 3174.253906 343.183594 C 3175.933594 342.390625 3177.699219 341.972656 3179.558594 341.933594 L 3332.890625 338.695312 L 3238.335938 309.925781 C 3237.609375 309.707031 3236.910156 309.425781 3236.230469 309.082031 C 3235.554688 308.738281 3234.914062 308.339844 3234.304688 307.882812 C 3233.699219 307.429688 3233.136719 306.925781 3232.617188 306.371094 C 3232.097656 305.816406 3231.632812 305.222656 3231.214844 304.585938 C 3230.800781 303.953125 3230.445312 303.285156 3230.144531 302.589844 C 3229.847656 301.890625 3229.609375 301.171875 3229.4375 300.433594 C 3229.261719 299.695312 3229.15625 298.945312 3229.113281 298.1875 C 3229.070312 297.433594 3229.09375 296.675781 3229.179688 295.921875 C 3229.269531 295.167969 3229.425781 294.429688 3229.640625 293.703125 C 3229.859375 292.976562 3230.140625 292.273438 3230.480469 291.59375 C 3230.820312 290.917969 3231.21875 290.273438 3231.671875 289.664062 C 3232.125 289.058594 3232.628906 288.492188 3233.179688 287.972656 C 3233.730469 287.449219 3234.324219 286.980469 3234.957031 286.5625 C 3235.59375 286.148438 3236.257812 285.789062 3236.953125 285.488281 C 3237.652344 285.183594 3238.367188 284.945312 3239.105469 284.769531 C 3239.84375 284.59375 3240.59375 284.484375 3241.347656 284.441406 L 3347.335938 278.070312 L 3201.847656 230.472656 C 3200.546875 230.046875 3199.339844 229.429688 3198.234375 228.625 C 3197.519531 228.105469 3126.753906 176.667969 3105.769531 164.074219 C 3061.480469 137.5 3021.128906 129.980469 2985.835938 141.714844 C 2937.628906 157.75 2915.507812 203.921875 2909.875 217.691406 C 2900.992188 239.421875 2859.332031 353.929688 2911.976562 474.957031 C 2952.929688 569.097656 3031.867188 636.65625 3103.683594 690.320312 C 3150.121094 725.023438 3193.984375 757.800781 3226.832031 800.070312 C 3264.035156 847.949219 3282.066406 901.351562 3283.578125 968.136719 C 3284.722656 1019.871094 3274.558594 1067.511719 3253.339844 1109.75 Z M 3253.332031 1109.746094 " fill-opacity="1" fill-rule="nonzero"/><path fill="#ffffff" d="M 2173.855469 2232.296875 C 2139.09375 2264.886719 2102.648438 2286.25 2060.875 2304 C 2044.035156 2311.15625 1960.589844 2452.621094 1960.589844 2452.621094 C 1960.589844 2452.621094 2553.957031 2263.242188 2612.695312 2250.59375 C 2684.9375 2235.039062 2728.640625 2254.882812 2764.832031 2314.855469 C 2840.875 2440.882812 2928.914062 2556.097656 2908.230469 2562.5625 C 2881.65625 2570.867188 2808.285156 2543.003906 2721.378906 2421.328125 C 2693.132812 2449.574219 2693.851562 2491.972656 2706.167969 2514.757812 C 2718.484375 2537.542969 2649.460938 2529.714844 2643.160156 2460.4375 C 2640.988281 2436.535156 2644.132812 2420.984375 2632.296875 2406.117188 C 2613.871094 2382.980469 2580.804688 2387.808594 2503.085938 2410.027344 C 2407.269531 2437.429688 2004.867188 2566.976562 2004.867188 2566.976562 C 2004.867188 2566.976562 1951.308594 2621.785156 1893.933594 2618.828125 C 1835.980469 2615.839844 1788.929688 2547.753906 1837.84375 2439.222656 L 2004.652344 2000.804688 L 2315.351562 2000.804688 C 2247.996094 2172.480469 2173.855469 2232.296875 2173.855469 2232.296875 Z M 2173.855469 2232.296875 " fill-opacity="1" fill-rule="nonzero"/><path fill="#ffffff" d="M 1898.441406 2632 C 1896.71875 2632 1894.996094 2631.953125 1893.261719 2631.867188 C 1863.464844 2630.328125 1837.152344 2614.335938 1821.078125 2587.992188 C 1807.226562 2565.292969 1789.445312 2515.167969 1825.796875 2434.25 L 1877.046875 2299.375 C 1877.34375 2298.566406 1877.71875 2297.796875 1878.167969 2297.0625 C 1878.621094 2296.328125 1879.140625 2295.644531 1879.726562 2295.015625 C 1880.3125 2294.382812 1880.953125 2293.816406 1881.652344 2293.3125 C 1882.351562 2292.808594 1883.09375 2292.378906 1883.875 2292.019531 C 1884.660156 2291.664062 1885.472656 2291.386719 1886.308594 2291.191406 C 1887.148438 2290.996094 1888 2290.882812 1888.859375 2290.855469 C 1889.71875 2290.828125 1890.574219 2290.886719 1891.425781 2291.027344 C 1892.273438 2291.167969 1893.101562 2291.394531 1893.90625 2291.699219 C 1894.710938 2292.003906 1895.480469 2292.386719 1896.210938 2292.84375 C 1896.9375 2293.304688 1897.617188 2293.828125 1898.242188 2294.421875 C 1898.867188 2295.011719 1899.429688 2295.660156 1899.925781 2296.363281 C 1900.421875 2297.070312 1900.84375 2297.8125 1901.195312 2298.601562 C 1901.542969 2299.390625 1901.8125 2300.203125 1902 2301.042969 C 1902.1875 2301.882812 1902.292969 2302.734375 1902.308594 2303.597656 C 1902.328125 2304.457031 1902.265625 2305.3125 1902.113281 2306.160156 C 1901.964844 2307.007812 1901.730469 2307.835938 1901.417969 2308.636719 L 1850.03125 2443.875 C 1849.9375 2444.121094 1849.835938 2444.359375 1849.730469 2444.601562 C 1826.617188 2495.878906 1824.285156 2543.199219 1843.332031 2574.410156 C 1844.648438 2576.667969 1846.101562 2578.832031 1847.6875 2580.910156 C 1849.269531 2582.988281 1850.976562 2584.960938 1852.804688 2586.828125 C 1854.632812 2588.695312 1856.570312 2590.445312 1858.613281 2592.074219 C 1860.65625 2593.703125 1862.792969 2595.199219 1865.019531 2596.566406 C 1867.25 2597.929688 1869.550781 2599.152344 1871.929688 2600.234375 C 1874.3125 2601.316406 1876.746094 2602.246094 1879.242188 2603.027344 C 1881.734375 2603.808594 1884.265625 2604.433594 1886.839844 2604.902344 C 1889.410156 2605.367188 1892 2605.675781 1894.609375 2605.828125 C 1945.488281 2608.460938 1995.050781 2558.390625 1995.546875 2557.886719 C 1997.050781 2556.34375 1998.828125 2555.246094 2000.875 2554.585938 C 2004.902344 2553.28125 2404.59375 2424.660156 2499.511719 2397.515625 C 2578.460938 2374.933594 2618.300781 2367.621094 2642.5 2398.007812 C 2654.046875 2412.507812 2654.628906 2427.558594 2655.246094 2443.480469 C 2655.4375 2448.476562 2655.636719 2453.640625 2656.152344 2459.269531 C 2658.683594 2487.136719 2672.535156 2500.796875 2680.570312 2506.457031 C 2683.65625 2508.667969 2686.980469 2510.421875 2690.546875 2511.722656 C 2679.683594 2482.296875 2684.246094 2440.039062 2712.167969 2412.121094 C 2712.5 2411.785156 2712.851562 2411.472656 2713.21875 2411.175781 C 2713.585938 2410.878906 2713.972656 2410.605469 2714.367188 2410.351562 C 2714.765625 2410.097656 2715.175781 2409.867188 2715.597656 2409.65625 C 2716.023438 2409.445312 2716.457031 2409.261719 2716.898438 2409.097656 C 2717.339844 2408.9375 2717.792969 2408.796875 2718.25 2408.683594 C 2718.707031 2408.570312 2719.171875 2408.484375 2719.636719 2408.417969 C 2720.105469 2408.355469 2720.574219 2408.320312 2721.046875 2408.304688 C 2721.519531 2408.292969 2721.992188 2408.308594 2722.460938 2408.347656 C 2722.929688 2408.386719 2723.398438 2408.449219 2723.863281 2408.539062 C 2724.324219 2408.628906 2724.78125 2408.742188 2725.234375 2408.882812 C 2725.683594 2409.023438 2726.125 2409.183594 2726.558594 2409.371094 C 2726.992188 2409.558594 2727.414062 2409.769531 2727.824219 2410.003906 C 2728.234375 2410.238281 2728.632812 2410.492188 2729.015625 2410.769531 C 2729.398438 2411.042969 2729.761719 2411.339844 2730.113281 2411.65625 C 2730.464844 2411.972656 2730.796875 2412.304688 2731.109375 2412.65625 C 2731.425781 2413.011719 2731.71875 2413.378906 2731.992188 2413.761719 C 2779.222656 2479.886719 2819.265625 2513.34375 2844.539062 2529.769531 C 2868.542969 2545.363281 2886.144531 2550.273438 2896.46875 2550.816406 C 2888.78125 2531.398438 2857.886719 2484.183594 2830.214844 2441.890625 C 2806.398438 2405.496094 2779.402344 2364.242188 2753.675781 2321.605469 C 2719.851562 2265.546875 2681.105469 2249.21875 2615.449219 2263.351562 C 2557.984375 2275.722656 1970.488281 2463.160156 1964.5625 2465.054688 C 1963.933594 2465.253906 1963.296875 2465.40625 1962.648438 2465.511719 C 1962 2465.613281 1961.347656 2465.667969 1960.691406 2465.671875 C 1960.035156 2465.679688 1959.382812 2465.632812 1958.734375 2465.539062 C 1958.082031 2465.445312 1957.445312 2465.304688 1956.816406 2465.113281 C 1956.1875 2464.921875 1955.578125 2464.6875 1954.984375 2464.402344 C 1954.390625 2464.121094 1953.824219 2463.796875 1953.277344 2463.425781 C 1952.734375 2463.058594 1952.222656 2462.652344 1951.742188 2462.207031 C 1951.257812 2461.761719 1950.8125 2461.28125 1950.402344 2460.765625 C 1949.996094 2460.253906 1949.625 2459.710938 1949.296875 2459.144531 C 1948.96875 2458.574219 1948.6875 2457.984375 1948.449219 2457.371094 C 1948.210938 2456.761719 1948.019531 2456.132812 1947.875 2455.492188 C 1947.730469 2454.851562 1947.636719 2454.203125 1947.589844 2453.550781 C 1947.542969 2452.894531 1947.546875 2452.238281 1947.601562 2451.585938 C 1947.652344 2450.929688 1947.753906 2450.285156 1947.90625 2449.644531 C 1948.054688 2449.003906 1948.253906 2448.382812 1948.5 2447.773438 C 1948.746094 2447.164062 1949.035156 2446.574219 1949.367188 2446.007812 C 1949.585938 2445.65625 1970.597656 2410.050781 1993.410156 2374.027344 C 2041.519531 2298.070312 2050.445312 2294.285156 2055.78125 2292.007812 C 2100.476562 2273.015625 2134.144531 2251.667969 2164.945312 2222.792969 C 2165.566406 2222.195312 2166.242188 2221.667969 2166.96875 2221.207031 C 2167.699219 2220.746094 2168.464844 2220.359375 2169.265625 2220.050781 C 2170.070312 2219.742188 2170.894531 2219.515625 2171.746094 2219.367188 C 2172.59375 2219.222656 2173.449219 2219.160156 2174.308594 2219.183594 C 2175.171875 2219.207031 2176.019531 2219.316406 2176.859375 2219.507812 C 2177.699219 2219.699219 2178.511719 2219.972656 2179.296875 2220.328125 C 2180.082031 2220.679688 2180.828125 2221.105469 2181.527344 2221.605469 C 2182.226562 2222.109375 2182.875 2222.671875 2183.460938 2223.300781 C 2184.050781 2223.929688 2184.574219 2224.609375 2185.027344 2225.339844 C 2185.480469 2226.070312 2185.859375 2226.839844 2186.160156 2227.648438 C 2186.464844 2228.453125 2186.683594 2229.28125 2186.820312 2230.132812 C 2186.957031 2230.984375 2187.011719 2231.839844 2186.980469 2232.699219 C 2186.945312 2233.558594 2186.832031 2234.410156 2186.632812 2235.246094 C 2186.429688 2236.085938 2186.152344 2236.894531 2185.789062 2237.675781 C 2185.429688 2238.460938 2184.996094 2239.199219 2184.488281 2239.894531 C 2183.980469 2240.589844 2183.410156 2241.230469 2182.777344 2241.8125 C 2149.78125 2272.75 2113.917969 2295.570312 2066.574219 2315.75 C 2057.003906 2322.882812 2022.789062 2374.902344 1989.492188 2429.742188 C 2116.035156 2389.449219 2558.636719 2248.910156 2609.957031 2237.859375 C 2686.65625 2221.347656 2736.3125 2242.363281 2776 2308.132812 C 2801.480469 2350.363281 2828.335938 2391.40625 2852.027344 2427.613281 C 2913.949219 2522.261719 2929.039062 2548.058594 2923.179688 2564.402344 C 2922.738281 2565.65625 2922.15625 2566.84375 2921.433594 2567.960938 C 2920.710938 2569.078125 2919.871094 2570.101562 2918.910156 2571.019531 C 2917.953125 2571.941406 2916.898438 2572.742188 2915.75 2573.417969 C 2914.605469 2574.089844 2913.394531 2574.625 2912.125 2575.019531 C 2907.507812 2576.402344 2902.792969 2577.070312 2897.976562 2577.015625 C 2858.214844 2577.015625 2791.785156 2537.242188 2720.980469 2442.863281 C 2707.074219 2465.996094 2709.886719 2494.222656 2717.644531 2508.570312 C 2722.035156 2516.699219 2721.613281 2525.269531 2716.515625 2531.488281 C 2710.152344 2539.253906 2698.082031 2541.347656 2684.230469 2537.089844 C 2661.835938 2530.214844 2634.246094 2506.324219 2630.183594 2461.628906 C 2629.609375 2455.328125 2629.386719 2449.570312 2629.191406 2444.488281 C 2628.605469 2429.34375 2628.058594 2421.726562 2622.105469 2414.25 C 2609.535156 2398.46875 2584.734375 2400.257812 2506.679688 2422.582031 C 2416.472656 2448.382812 2048.570312 2566.640625 2011.800781 2578.460938 C 2000.558594 2589.222656 1952.4375 2631.996094 1898.441406 2632 Z M 2066.839844 2315.558594 Z M 2066.839844 2315.558594 " fill-opacity="1" fill-rule="nonzero"/><path fill="#ffffff" d="M 861.539062 1445.726562 C 535.636719 1369.679688 342.757812 1655.644531 333.574219 1797.726562 C 329.796875 1856.113281 407.585938 1759.800781 511.734375 1757.46875 C 444.53125 1878.890625 449.792969 2010.417969 511.734375 1975.902344 C 532.679688 1964.226562 542.421875 1922.597656 618.199219 1884.640625 C 618.199219 1884.640625 642.316406 1873.730469 680.511719 1867.503906 C 653.4375 1908.652344 638.167969 1961.167969 649.066406 2027.511719 C 660.070312 2094.496094 757.25 1930.269531 1000.59375 1919.40625 C 1000.59375 1919.40625 1076.90625 1916.078125 1292.007812 1946.496094 L 1292.007812 1635.117188 C 981.308594 1470.652344 861.539062 1445.726562 861.539062 1445.726562 Z M 861.539062 1445.726562 " fill-opacity="1" fill-rule="nonzero"/><path fill="#ffffff" d="M 343.21875 1829.566406 C 341.070312 1829.597656 338.960938 1829.320312 336.894531 1828.726562 C 334.828125 1828.136719 332.894531 1827.257812 331.085938 1826.089844 C 319.171875 1818.410156 320.222656 1802.210938 320.5625 1796.886719 C 323.363281 1753.621094 341.316406 1701.726562 371.125 1650.765625 C 379.417969 1636.578125 388.398438 1622.839844 398.0625 1609.550781 C 407.730469 1596.261719 418.03125 1583.484375 428.976562 1571.226562 C 439.917969 1558.96875 451.445312 1547.285156 463.558594 1536.175781 C 475.667969 1525.070312 488.300781 1514.59375 501.460938 1504.75 C 574.609375 1450.457031 696.972656 1393.9375 864.503906 1433.03125 C 865.339844 1433.226562 866.148438 1433.496094 866.929688 1433.847656 C 867.710938 1434.199219 868.453125 1434.625 869.148438 1435.125 C 869.847656 1435.621094 870.492188 1436.183594 871.078125 1436.808594 C 871.664062 1437.433594 872.1875 1438.109375 872.640625 1438.835938 C 873.09375 1439.566406 873.472656 1440.332031 873.777344 1441.132812 C 874.078125 1441.9375 874.300781 1442.761719 874.441406 1443.605469 C 874.582031 1444.453125 874.636719 1445.304688 874.609375 1446.160156 C 874.582031 1447.019531 874.46875 1447.863281 874.273438 1448.699219 C 874.078125 1449.535156 873.804688 1450.34375 873.449219 1451.125 C 873.097656 1451.90625 872.667969 1452.644531 872.167969 1453.34375 C 871.667969 1454.039062 871.105469 1454.679688 870.476562 1455.265625 C 869.851562 1455.851562 869.171875 1456.371094 868.445312 1456.820312 C 867.714844 1457.273438 866.949219 1457.648438 866.144531 1457.949219 C 865.34375 1458.25 864.515625 1458.46875 863.671875 1458.605469 C 862.824219 1458.742188 861.972656 1458.796875 861.113281 1458.765625 C 860.257812 1458.734375 859.410156 1458.621094 858.578125 1458.425781 C 700.765625 1421.609375 585.722656 1474.683594 517 1525.6875 C 411.65625 1603.894531 351.523438 1722.164062 346.582031 1798.574219 C 346.476562 1800.03125 346.453125 1801.484375 346.503906 1802.941406 C 353.304688 1801.003906 366.480469 1793.96875 377.410156 1788.136719 C 409.167969 1771.1875 457.164062 1745.5625 511.734375 1744.425781 C 512.589844 1744.410156 513.4375 1744.476562 514.28125 1744.625 C 515.121094 1744.777344 515.941406 1745.007812 516.738281 1745.320312 C 517.535156 1745.628906 518.292969 1746.015625 519.015625 1746.476562 C 519.734375 1746.9375 520.40625 1747.464844 521.023438 1748.058594 C 521.640625 1748.648438 522.191406 1749.296875 522.683594 1750 C 523.171875 1750.699219 523.589844 1751.441406 523.933594 1752.226562 C 524.277344 1753.011719 524.539062 1753.820312 524.726562 1754.65625 C 524.910156 1755.492188 525.011719 1756.335938 525.027344 1757.191406 C 525.046875 1758.046875 524.980469 1758.898438 524.832031 1759.738281 C 524.679688 1760.582031 524.453125 1761.402344 524.140625 1762.199219 C 523.828125 1762.996094 523.445312 1763.753906 522.984375 1764.476562 C 522.523438 1765.199219 522 1765.867188 521.40625 1766.484375 C 520.8125 1767.101562 520.167969 1767.65625 519.464844 1768.148438 C 518.765625 1768.636719 518.023438 1769.054688 517.238281 1769.402344 C 516.457031 1769.746094 515.648438 1770.007812 514.8125 1770.195312 C 513.976562 1770.378906 513.132812 1770.480469 512.277344 1770.5 C 463.941406 1771.507812 421.023438 1794.414062 389.6875 1811.132812 C 369.988281 1821.660156 355.167969 1829.566406 343.21875 1829.566406 Z M 343.21875 1829.566406 " fill-opacity="1" fill-rule="nonzero"/><path fill="#ffffff" d="M 493.292969 1994.585938 C 491.085938 1994.59375 488.894531 1994.386719 486.726562 1993.976562 C 484.554688 1993.5625 482.445312 1992.949219 480.390625 1992.136719 C 478.339844 1991.320312 476.382812 1990.320312 474.519531 1989.132812 C 472.65625 1987.949219 470.921875 1986.597656 469.316406 1985.078125 C 438.449219 1956.398438 445.886719 1865.851562 486.246094 1778.914062 C 507.828125 1732.425781 548.070312 1667.042969 617.234375 1619.5625 C 685.417969 1572.757812 765.214844 1554.515625 854.421875 1565.34375 C 855.269531 1565.449219 856.101562 1565.636719 856.910156 1565.902344 C 857.722656 1566.171875 858.503906 1566.515625 859.246094 1566.9375 C 859.992188 1567.359375 860.6875 1567.847656 861.335938 1568.40625 C 861.984375 1568.964844 862.570312 1569.578125 863.097656 1570.253906 C 863.625 1570.925781 864.078125 1571.644531 864.464844 1572.410156 C 864.851562 1573.171875 865.15625 1573.964844 865.386719 1574.789062 C 865.617188 1575.613281 865.761719 1576.453125 865.828125 1577.304688 C 865.890625 1578.15625 865.871094 1579.007812 865.769531 1579.855469 C 865.667969 1580.707031 865.480469 1581.539062 865.214844 1582.351562 C 864.949219 1583.164062 864.605469 1583.941406 864.183594 1584.6875 C 863.765625 1585.429688 863.277344 1586.128906 862.71875 1586.777344 C 862.164062 1587.425781 861.546875 1588.015625 860.875 1588.542969 C 860.203125 1589.070312 859.484375 1589.527344 858.722656 1589.914062 C 857.960938 1590.300781 857.167969 1590.609375 856.34375 1590.839844 C 855.519531 1591.070312 854.683594 1591.21875 853.828125 1591.285156 C 852.976562 1591.351562 852.125 1591.332031 851.277344 1591.230469 C 768.566406 1581.1875 694.789062 1597.953125 631.988281 1641.0625 C 567.691406 1685.203125 530.101562 1746.359375 509.882812 1789.902344 C 470.246094 1875.296875 469.871094 1950 487.050781 1965.96875 C 488.664062 1967.464844 492.949219 1971.445312 505.378906 1964.519531 C 510.148438 1961.863281 515.265625 1955.394531 521.746094 1947.1875 C 536.757812 1928.195312 559.441406 1899.492188 612.347656 1872.992188 C 613.113281 1872.609375 613.910156 1872.300781 614.734375 1872.074219 C 615.558594 1871.847656 616.398438 1871.707031 617.253906 1871.644531 C 618.109375 1871.582031 618.960938 1871.605469 619.808594 1871.710938 C 620.65625 1871.820312 621.488281 1872.007812 622.300781 1872.277344 C 623.113281 1872.546875 623.890625 1872.894531 624.636719 1873.316406 C 625.378906 1873.742188 626.074219 1874.234375 626.722656 1874.792969 C 627.367188 1875.355469 627.953125 1875.972656 628.480469 1876.648438 C 629.003906 1877.324219 629.460938 1878.042969 629.84375 1878.808594 C 630.226562 1879.574219 630.53125 1880.371094 630.757812 1881.195312 C 630.984375 1882.023438 631.128906 1882.863281 631.191406 1883.714844 C 631.25 1884.570312 631.230469 1885.421875 631.121094 1886.269531 C 631.015625 1887.121094 630.828125 1887.949219 630.558594 1888.761719 C 630.285156 1889.574219 629.941406 1890.351562 629.515625 1891.097656 C 629.09375 1891.839844 628.601562 1892.535156 628.042969 1893.183594 C 627.480469 1893.832031 626.863281 1894.417969 626.1875 1894.941406 C 625.511719 1895.46875 624.789062 1895.921875 624.023438 1896.304688 C 576.300781 1920.207031 556.589844 1945.148438 542.199219 1963.355469 C 534.246094 1973.417969 527.375 1982.109375 518.070312 1987.296875 C 514.320312 1989.554688 510.347656 1991.300781 506.152344 1992.539062 C 501.953125 1993.773438 497.667969 1994.457031 493.292969 1994.585938 Z M 493.292969 1994.585938 " fill-opacity="1" fill-rule="nonzero"/><path fill="#ffffff" d="M 662.148438 2056.582031 C 658.625 2056.605469 655.257812 2055.898438 652.042969 2054.457031 C 639.34375 2048.75 636.980469 2034.359375 636.203125 2029.632812 C 620.054688 1931.316406 657.316406 1846.78125 743.96875 1785.160156 C 764.480469 1770.832031 786.070312 1758.375 808.738281 1747.785156 C 831.40625 1737.191406 854.816406 1728.628906 878.964844 1722.085938 C 879.796875 1721.890625 880.636719 1721.777344 881.492188 1721.746094 C 882.34375 1721.714844 883.191406 1721.765625 884.035156 1721.902344 C 884.878906 1722.035156 885.699219 1722.253906 886.5 1722.550781 C 887.300781 1722.847656 888.066406 1723.21875 888.792969 1723.664062 C 889.519531 1724.113281 890.199219 1724.625 890.824219 1725.207031 C 891.449219 1725.785156 892.015625 1726.421875 892.515625 1727.113281 C 893.019531 1727.804688 893.449219 1728.535156 893.804688 1729.3125 C 894.164062 1730.085938 894.441406 1730.890625 894.640625 1731.71875 C 894.84375 1732.550781 894.960938 1733.390625 894.996094 1734.246094 C 895.027344 1735.097656 894.980469 1735.945312 894.847656 1736.789062 C 894.714844 1737.632812 894.503906 1738.457031 894.210938 1739.257812 C 893.917969 1740.058594 893.546875 1740.824219 893.101562 1741.554688 C 892.660156 1742.285156 892.148438 1742.960938 891.570312 1743.589844 C 890.992188 1744.21875 890.359375 1744.785156 889.671875 1745.292969 C 888.984375 1745.796875 888.25 1746.230469 887.476562 1746.589844 C 886.703125 1746.949219 885.902344 1747.230469 885.074219 1747.4375 C 884.421875 1747.59375 818.613281 1763.875 758.484375 1806.832031 C 679.832031 1863.03125 647.339844 1936.566406 661.933594 2025.402344 C 662.171875 2027.136719 662.609375 2028.824219 663.234375 2030.457031 C 670.253906 2029.636719 689.726562 2017.328125 705.550781 2007.328125 C 761.453125 1971.996094 855.015625 1912.863281 1000.015625 1906.390625 C 1000.871094 1906.347656 1001.722656 1906.390625 1002.570312 1906.519531 C 1003.417969 1906.648438 1004.246094 1906.855469 1005.054688 1907.144531 C 1005.859375 1907.4375 1006.632812 1907.804688 1007.367188 1908.246094 C 1008.101562 1908.6875 1008.785156 1909.199219 1009.417969 1909.777344 C 1010.054688 1910.355469 1010.625 1910.988281 1011.132812 1911.679688 C 1011.640625 1912.371094 1012.078125 1913.105469 1012.441406 1913.882812 C 1012.804688 1914.660156 1013.089844 1915.464844 1013.292969 1916.296875 C 1013.5 1917.128906 1013.621094 1917.972656 1013.660156 1918.832031 C 1013.699219 1919.6875 1013.652344 1920.539062 1013.523438 1921.386719 C 1013.390625 1922.234375 1013.179688 1923.0625 1012.886719 1923.867188 C 1012.59375 1924.675781 1012.226562 1925.445312 1011.78125 1926.175781 C 1011.335938 1926.910156 1010.820312 1927.59375 1010.242188 1928.226562 C 1009.664062 1928.859375 1009.027344 1929.425781 1008.335938 1929.933594 C 1007.640625 1930.441406 1006.90625 1930.875 1006.128906 1931.234375 C 1005.351562 1931.597656 1004.546875 1931.878906 1003.710938 1932.082031 C 1002.878906 1932.28125 1002.035156 1932.402344 1001.175781 1932.4375 C 863.09375 1938.605469 773.191406 1995.421875 719.480469 2029.367188 C 693.890625 2045.542969 676.417969 2056.582031 662.148438 2056.582031 Z M 662.148438 2056.582031 " fill-opacity="1" fill-rule="nonzero"/><path fill="#ffffff" d="M 3321.832031 1213.414062 C 3295.386719 1210.152344 3310.808594 1140.273438 3310.808594 1140.273438 C 3310.808594 1140.273438 3259.097656 1203.125 3239.390625 1189.382812 C 3219.683594 1175.636719 3241.640625 1103.988281 3241.640625 1103.988281 C 3192.539062 1207.742188 3068.691406 1254.113281 3013.980469 1254.113281 C 2949.261719 1254.113281 2880.074219 1218.402344 2804.195312 1254.113281 C 2728.316406 1289.820312 2606.222656 1110.945312 2372.304688 1072.488281 C 1921.472656 998.355469 1678.757812 1192.691406 1391.679688 1321.875 C 1130.957031 1439.210938 882.265625 1353.691406 907.167969 1404.445312 C 976.964844 1546.695312 1188.34375 1554.453125 1174.410156 1586.960938 C 1141.820312 1663.011719 916.378906 1593.371094 935.414062 1632.59375 C 1007.113281 1780.34375 1264.144531 1789.253906 1254.800781 1817.285156 C 1237.417969 1869.433594 1057.085938 1828.148438 1059.257812 1862.914062 C 1061.429688 1897.679688 1183.101562 2043.257812 1804.496094 2149.726562 C 1804.496094 2149.726562 2381.023438 2210.738281 2617.679688 2128.527344 C 2980.863281 2002.363281 2939.890625 1737.78125 2935.722656 1662.636719 C 2932.230469 1599.714844 2961.375 1585.683594 3014.003906 1551.03125 C 3028.304688 1541.617188 3044.789062 1531.570312 3063.585938 1520.660156 C 3265.367188 1403.570312 3340.824219 1255.511719 3384.15625 1157.171875 C 3384.15625 1157.175781 3348.289062 1216.679688 3321.832031 1213.414062 Z M 3321.832031 1213.414062 " fill-opacity="1" fill-rule="nonzero"/><path fill="#ffffff" d="M 2228.371094 2184.589844 C 2194.539062 2184.589844 2159.070312 2184.058594 2121.964844 2182.996094 C 1949.746094 2178.0625 1804.570312 2162.851562 1803.121094 2162.699219 C 1802.84375 2162.667969 1802.566406 2162.632812 1802.292969 2162.585938 C 1534.800781 2116.75 1330.089844 2059.058594 1193.847656 1991.105469 C 1056.664062 1922.679688 1046.824219 1872.996094 1046.246094 1863.734375 C 1046.140625 1862.253906 1046.1875 1860.777344 1046.390625 1859.308594 C 1046.59375 1857.835938 1046.945312 1856.402344 1047.449219 1855.007812 C 1047.949219 1853.613281 1048.589844 1852.28125 1049.371094 1851.019531 C 1050.152344 1849.757812 1051.050781 1848.589844 1052.074219 1847.515625 C 1063.917969 1834.820312 1090.179688 1834.023438 1135.578125 1833.707031 C 1171.824219 1833.453125 1224.890625 1833.085938 1239.300781 1818.167969 C 1229.847656 1813.820312 1209.011719 1808.019531 1190.230469 1802.796875 C 1109.503906 1780.34375 974.390625 1742.773438 923.683594 1638.292969 C 918.964844 1628.570312 922.085938 1621.4375 924.363281 1618.054688 C 933.546875 1604.433594 956.085938 1605.347656 1006.1875 1608.714844 C 1060.476562 1612.363281 1141.664062 1617.816406 1160.792969 1585.070312 C 1153.539062 1579.984375 1132.128906 1572.46875 1114.535156 1566.308594 C 1050.175781 1543.738281 942.457031 1505.964844 895.464844 1410.191406 C 890.234375 1399.542969 892.636719 1391.84375 895.574219 1387.269531 C 905.433594 1371.90625 930.992188 1372.585938 986.960938 1374.078125 C 1077.699219 1376.496094 1229.574219 1380.542969 1386.335938 1309.996094 C 1440.554688 1285.59375 1494.265625 1258.308594 1546.207031 1231.921875 C 1771.75 1117.34375 2004.96875 998.867188 2374.421875 1059.613281 C 2502.710938 1080.707031 2599.1875 1143.863281 2669.632812 1189.984375 C 2727.953125 1228.164062 2770.089844 1255.757812 2798.652344 1242.3125 C 2853.621094 1216.445312 2905.714844 1225.582031 2951.675781 1233.636719 C 2973.492188 1237.460938 2994.097656 1241.074219 3013.988281 1241.074219 C 3064.101562 1241.074219 3182.730469 1197.996094 3229.863281 1098.410156 C 3230.210938 1097.671875 3230.625 1096.972656 3231.105469 1096.3125 C 3231.585938 1095.652344 3232.125 1095.042969 3232.71875 1094.484375 C 3233.316406 1093.925781 3233.957031 1093.425781 3234.644531 1092.988281 C 3235.335938 1092.550781 3236.058594 1092.179688 3236.816406 1091.878906 C 3237.574219 1091.574219 3238.351562 1091.347656 3239.152344 1091.191406 C 3239.957031 1091.035156 3240.765625 1090.957031 3241.582031 1090.953125 C 3242.398438 1090.945312 3243.207031 1091.019531 3244.007812 1091.167969 C 3244.8125 1091.316406 3245.59375 1091.535156 3246.355469 1091.832031 C 3247.113281 1092.125 3247.84375 1092.488281 3248.535156 1092.921875 C 3249.226562 1093.351562 3249.875 1093.84375 3250.476562 1094.398438 C 3251.074219 1094.949219 3251.617188 1095.554688 3252.105469 1096.210938 C 3252.59375 1096.863281 3253.015625 1097.558594 3253.371094 1098.292969 C 3253.726562 1099.027344 3254.011719 1099.789062 3254.226562 1100.578125 C 3254.441406 1101.363281 3254.578125 1102.164062 3254.640625 1102.980469 C 3254.703125 1103.792969 3254.691406 1104.605469 3254.601562 1105.417969 C 3254.511719 1106.226562 3254.347656 1107.023438 3254.109375 1107.804688 C 3250.769531 1119.175781 3248.128906 1130.707031 3246.1875 1142.398438 C 3242.03125 1168.453125 3245.535156 1176.554688 3246.621094 1178.320312 C 3255.214844 1177.980469 3280.976562 1156.007812 3300.742188 1131.988281 C 3301.203125 1131.425781 3301.710938 1130.90625 3302.257812 1130.429688 C 3302.808594 1129.953125 3303.390625 1129.527344 3304.011719 1129.148438 C 3304.632812 1128.769531 3305.28125 1128.445312 3305.953125 1128.175781 C 3306.628906 1127.902344 3307.320312 1127.691406 3308.03125 1127.535156 C 3308.742188 1127.382812 3309.460938 1127.289062 3310.183594 1127.253906 C 3310.910156 1127.21875 3311.632812 1127.246094 3312.355469 1127.332031 C 3313.078125 1127.417969 3313.789062 1127.5625 3314.484375 1127.769531 C 3315.183594 1127.972656 3315.859375 1128.234375 3316.511719 1128.550781 C 3317.164062 1128.871094 3317.785156 1129.242188 3318.378906 1129.664062 C 3318.96875 1130.085938 3319.523438 1130.554688 3320.035156 1131.066406 C 3320.550781 1131.582031 3321.015625 1132.136719 3321.4375 1132.730469 C 3321.859375 1133.320312 3322.226562 1133.945312 3322.542969 1134.601562 C 3322.859375 1135.253906 3323.117188 1135.929688 3323.320312 1136.628906 C 3323.523438 1137.324219 3323.667969 1138.035156 3323.753906 1138.757812 C 3323.839844 1139.480469 3323.863281 1140.203125 3323.824219 1140.929688 C 3323.789062 1141.65625 3323.691406 1142.371094 3323.535156 1143.082031 C 3317.636719 1169.953125 3318.507812 1197.101562 3323.355469 1200.480469 L 3321.835938 1213.410156 L 3323.433594 1200.472656 C 3334.046875 1201.785156 3358.066406 1175.15625 3373.003906 1150.441406 C 3373.425781 1149.738281 3373.914062 1149.078125 3374.460938 1148.46875 C 3375.007812 1147.859375 3375.609375 1147.304688 3376.261719 1146.804688 C 3376.917969 1146.308594 3377.609375 1145.875 3378.34375 1145.511719 C 3379.078125 1145.144531 3379.839844 1144.847656 3380.632812 1144.628906 C 3381.421875 1144.40625 3382.226562 1144.257812 3383.042969 1144.1875 C 3383.863281 1144.117188 3384.679688 1144.125 3385.496094 1144.207031 C 3386.3125 1144.292969 3387.113281 1144.453125 3387.902344 1144.6875 C 3388.6875 1144.921875 3389.445312 1145.230469 3390.171875 1145.609375 C 3390.902344 1145.988281 3391.589844 1146.429688 3392.234375 1146.9375 C 3392.878906 1147.445312 3393.46875 1148.011719 3394.007812 1148.628906 C 3394.546875 1149.25 3395.019531 1149.914062 3395.433594 1150.625 C 3395.847656 1151.335938 3396.1875 1152.078125 3396.460938 1152.851562 C 3396.734375 1153.625 3396.929688 1154.417969 3397.054688 1155.230469 C 3397.175781 1156.042969 3397.222656 1156.859375 3397.191406 1157.679688 C 3397.160156 1158.5 3397.050781 1159.308594 3396.867188 1160.109375 C 3396.679688 1160.910156 3396.421875 1161.683594 3396.089844 1162.4375 C 3373.304688 1214.148438 3343.308594 1275.664062 3293.601562 1339.871094 C 3235.40625 1415.050781 3160.21875 1479.664062 3070.132812 1531.949219 C 3050.757812 1543.195312 3034.746094 1553 3021.179688 1561.9375 C 3017.445312 1564.398438 3013.832031 1566.761719 3010.335938 1569.023438 C 2964.769531 1598.695312 2945.902344 1610.96875 2948.738281 1661.925781 C 2948.957031 1666.015625 2949.304688 1670.679688 2949.679688 1675.859375 C 2953.003906 1721.730469 2959.191406 1807.109375 2920.238281 1896.855469 C 2872.628906 2006.542969 2772.277344 2088.636719 2621.957031 2140.863281 C 2538.246094 2169.933594 2406.105469 2184.585938 2228.371094 2184.589844 Z M 1806.273438 2136.8125 C 1814.898438 2137.707031 1956.136719 2152.167969 2122.890625 2156.9375 C 2280.230469 2161.4375 2493.050781 2158.023438 2613.398438 2116.21875 C 2756.550781 2066.492188 2851.746094 1989.191406 2896.320312 1886.46875 C 2932.722656 1802.59375 2926.835938 1721.371094 2923.675781 1677.738281 C 2923.289062 1672.394531 2922.941406 1667.585938 2922.707031 1663.363281 C 2919.042969 1597.355469 2949.699219 1577.390625 2996.101562 1547.167969 C 2999.5625 1544.914062 3003.140625 1542.574219 3006.835938 1540.148438 C 3020.816406 1530.945312 3037.238281 1520.882812 3057.046875 1509.390625 C 3206.042969 1422.929688 3285.429688 1320.636719 3337.394531 1223.878906 C 3334.6875 1225.011719 3331.878906 1225.785156 3328.96875 1226.203125 C 3326.0625 1226.621094 3323.152344 1226.667969 3320.230469 1226.34375 C 3318.363281 1226.117188 3316.542969 1225.699219 3314.765625 1225.082031 C 3312.988281 1224.464844 3311.292969 1223.667969 3309.6875 1222.691406 C 3308.082031 1221.710938 3306.597656 1220.574219 3305.234375 1219.277344 C 3303.871094 1217.980469 3302.660156 1216.554688 3301.605469 1214.996094 C 3295.070312 1205.75 3293.179688 1191.566406 3293.292969 1177.746094 C 3292.621094 1178.375 3291.941406 1179 3291.253906 1179.625 C 3281.738281 1188.277344 3252.773438 1214.605469 3231.9375 1200.0625 C 3222.609375 1193.542969 3218.078125 1181.730469 3218.136719 1163.558594 C 3206.503906 1176.808594 3193.816406 1188.957031 3180.070312 1200.003906 C 3166.324219 1211.046875 3151.730469 1220.820312 3136.285156 1229.324219 C 3103.582031 1247.601562 3054.285156 1267.132812 3013.992188 1267.132812 C 2991.832031 1267.132812 2969.136719 1263.152344 2947.179688 1259.308594 C 2902.96875 1251.558594 2857.253906 1243.542969 2809.757812 1265.894531 C 2768.015625 1285.542969 2720.761719 1254.597656 2655.359375 1211.792969 C 2583.046875 1164.453125 2493.054688 1105.539062 2370.199219 1085.332031 C 2208.3125 1058.71875 2058.945312 1065.125 1913.558594 1104.949219 C 1783.722656 1140.503906 1668.976562 1198.796875 1558.011719 1255.171875 C 1505.796875 1281.695312 1451.808594 1309.121094 1397.03125 1333.773438 C 1234.835938 1406.765625 1079.234375 1402.625 986.265625 1400.148438 C 960.304688 1399.457031 931.324219 1398.6875 920.128906 1401.234375 C 963.070312 1485.570312 1059.285156 1519.3125 1123.164062 1541.714844 C 1159.921875 1554.601562 1180.167969 1561.703125 1186.363281 1575.792969 C 1186.933594 1577.078125 1187.359375 1578.410156 1187.652344 1579.78125 C 1187.941406 1581.15625 1188.089844 1582.546875 1188.09375 1583.949219 C 1188.09375 1585.355469 1187.953125 1586.746094 1187.664062 1588.121094 C 1187.378906 1589.496094 1186.953125 1590.824219 1186.390625 1592.113281 C 1163.542969 1645.433594 1071.585938 1639.261719 1004.4375 1634.738281 C 986.027344 1633.5 962.113281 1631.890625 950.296875 1633.070312 C 998.449219 1722.414062 1122.449219 1756.890625 1197.21875 1777.683594 C 1241.398438 1789.96875 1259.574219 1795.429688 1265.957031 1807.417969 C 1266.53125 1808.480469 1266.992188 1809.59375 1267.335938 1810.75 C 1267.683594 1811.910156 1267.910156 1813.089844 1268.015625 1814.292969 C 1268.117188 1815.5 1268.097656 1816.699219 1267.957031 1817.902344 C 1267.8125 1819.101562 1267.550781 1820.273438 1267.164062 1821.421875 C 1254.65625 1858.957031 1191.488281 1859.398438 1135.761719 1859.785156 C 1114.058594 1859.9375 1082.019531 1860.160156 1072.691406 1864.421875 C 1076.441406 1877.855469 1105.417969 1917.875 1205.484375 1967.777344 C 1372.210938 2050.925781 1624.132812 2105.585938 1806.273438 2136.8125 Z M 918.429688 1397.628906 Z M 918.429688 1397.628906 " fill-opacity="1" fill-rule="nonzero"/><path fill="#ffffff" d="M 3108.679688 240.160156 C 3108.679688 240.902344 3108.644531 241.644531 3108.570312 242.382812 C 3108.496094 243.121094 3108.386719 243.855469 3108.242188 244.585938 C 3108.097656 245.3125 3107.917969 246.035156 3107.703125 246.746094 C 3107.488281 247.457031 3107.238281 248.15625 3106.953125 248.839844 C 3106.667969 249.527344 3106.351562 250.199219 3106 250.855469 C 3105.648438 251.507812 3105.269531 252.144531 3104.855469 252.761719 C 3104.441406 253.382812 3104 253.976562 3103.53125 254.550781 C 3103.058594 255.125 3102.558594 255.675781 3102.035156 256.203125 C 3101.511719 256.726562 3100.960938 257.226562 3100.386719 257.695312 C 3099.8125 258.167969 3099.214844 258.609375 3098.597656 259.023438 C 3097.980469 259.433594 3097.34375 259.816406 3096.6875 260.167969 C 3096.03125 260.515625 3095.363281 260.835938 3094.675781 261.117188 C 3093.988281 261.402344 3093.289062 261.652344 3092.578125 261.867188 C 3091.867188 262.085938 3091.148438 262.265625 3090.417969 262.410156 C 3089.691406 262.554688 3088.957031 262.664062 3088.21875 262.738281 C 3087.476562 262.808594 3086.738281 262.847656 3085.996094 262.847656 C 3085.25 262.847656 3084.511719 262.808594 3083.769531 262.738281 C 3083.03125 262.664062 3082.296875 262.554688 3081.566406 262.410156 C 3080.839844 262.265625 3080.121094 262.085938 3079.410156 261.867188 C 3078.699219 261.652344 3078 261.402344 3077.3125 261.117188 C 3076.625 260.835938 3075.957031 260.515625 3075.300781 260.167969 C 3074.644531 259.816406 3074.007812 259.433594 3073.390625 259.023438 C 3072.773438 258.609375 3072.175781 258.167969 3071.601562 257.695312 C 3071.027344 257.226562 3070.480469 256.726562 3069.953125 256.203125 C 3069.429688 255.675781 3068.929688 255.125 3068.457031 254.550781 C 3067.988281 253.976562 3067.542969 253.382812 3067.132812 252.761719 C 3066.71875 252.144531 3066.335938 251.507812 3065.988281 250.855469 C 3065.636719 250.199219 3065.320312 249.527344 3065.035156 248.839844 C 3064.75 248.15625 3064.5 247.457031 3064.285156 246.746094 C 3064.070312 246.035156 3063.890625 245.3125 3063.746094 244.585938 C 3063.601562 243.855469 3063.492188 243.121094 3063.417969 242.382812 C 3063.34375 241.644531 3063.308594 240.902344 3063.308594 240.160156 C 3063.308594 239.417969 3063.34375 238.675781 3063.417969 237.9375 C 3063.492188 237.195312 3063.601562 236.460938 3063.746094 235.734375 C 3063.890625 235.003906 3064.070312 234.285156 3064.285156 233.574219 C 3064.5 232.863281 3064.75 232.164062 3065.035156 231.476562 C 3065.320312 230.792969 3065.636719 230.121094 3065.988281 229.464844 C 3066.335938 228.808594 3066.71875 228.171875 3067.132812 227.554688 C 3067.542969 226.9375 3067.988281 226.339844 3068.457031 225.765625 C 3068.929688 225.191406 3069.429688 224.644531 3069.953125 224.117188 C 3070.480469 223.59375 3071.027344 223.09375 3071.601562 222.621094 C 3072.175781 222.152344 3072.773438 221.707031 3073.390625 221.296875 C 3074.007812 220.882812 3074.644531 220.5 3075.300781 220.152344 C 3075.957031 219.800781 3076.625 219.484375 3077.3125 219.199219 C 3078 218.914062 3078.699219 218.664062 3079.410156 218.449219 C 3080.121094 218.234375 3080.839844 218.054688 3081.566406 217.910156 C 3082.296875 217.765625 3083.03125 217.65625 3083.769531 217.582031 C 3084.511719 217.507812 3085.25 217.472656 3085.996094 217.472656 C 3086.738281 217.472656 3087.476562 217.507812 3088.21875 217.582031 C 3088.957031 217.65625 3089.691406 217.765625 3090.417969 217.910156 C 3091.148438 218.054688 3091.867188 218.234375 3092.578125 218.449219 C 3093.289062 218.664062 3093.988281 218.914062 3094.675781 219.199219 C 3095.363281 219.484375 3096.03125 219.800781 3096.6875 220.152344 C 3097.34375 220.5 3097.980469 220.882812 3098.597656 221.296875 C 3099.214844 221.707031 3099.8125 222.152344 3100.386719 222.621094 C 3100.960938 223.09375 3101.511719 223.59375 3102.035156 224.117188 C 3102.558594 224.644531 3103.058594 225.191406 3103.53125 225.765625 C 3104 226.339844 3104.441406 226.9375 3104.855469 227.554688 C 3105.269531 228.171875 3105.648438 228.808594 3106 229.464844 C 3106.351562 230.121094 3106.667969 230.792969 3106.953125 231.476562 C 3107.238281 232.164062 3107.488281 232.863281 3107.703125 233.574219 C 3107.917969 234.285156 3108.097656 235.003906 3108.242188 235.734375 C 3108.386719 236.460938 3108.496094 237.195312 3108.570312 237.9375 C 3108.644531 238.675781 3108.679688 239.417969 3108.679688 240.160156 Z M 3108.679688 240.160156 " fill-opacity="1" fill-rule="nonzero"/><path fill="#ffffff" d="M 1587.222656 2193.183594 C 1668.226562 2088.238281 1703.152344 1978.539062 1724.023438 1948.21875 C 1855.398438 1757.332031 2277.5 1791.988281 2277.5 1791.988281 C 2277.5 1791.988281 2339.988281 1981.703125 2116.8125 2117.847656 C 1893.636719 2253.992188 1734.96875 2288.789062 1734.96875 2288.789062 L 1413.277344 2529.382812 C 1413.277344 2529.382812 1416.179688 2576.96875 1376.757812 2621.222656 C 1331.257812 2672.285156 1268.222656 2685.105469 1268.222656 2685.105469 C 1268.222656 2685.105469 900.648438 3136.195312 795.859375 3327.574219 C 756.445312 3399.554688 633.40625 3457.785156 564.742188 3639.066406 C 553.675781 3668.289062 520.496094 3596.601562 530.441406 3531.113281 C 544.8125 3436.445312 637.554688 3325.308594 637.554688 3325.308594 C 637.554688 3325.308594 579.007812 3329.847656 554.796875 3350.097656 C 537.609375 3364.476562 518.785156 3259.84375 655.40625 3211.480469 C 709.558594 3192.3125 743.082031 3207.269531 785.484375 3149.242188 C 827.890625 3091.210938 1156.632812 2618.148438 1156.632812 2618.148438 C 1156.632812 2618.148438 1157.78125 2544.617188 1203.246094 2499.152344 C 1248.707031 2453.683594 1309.117188 2441.851562 1309.117188 2441.851562 C 1309.117188 2441.851562 1491.625 2317.035156 1587.222656 2193.183594 Z M 1587.222656 2193.183594 " fill-opacity="1" fill-rule="nonzero"/><path fill="#ffffff" d="M 558.003906 3658.796875 C 556.457031 3658.800781 554.9375 3658.605469 553.441406 3658.210938 C 536.902344 3653.878906 527.132812 3626.414062 522.777344 3610.433594 C 519.171875 3597.203125 516.929688 3583.746094 516.050781 3570.0625 C 515.175781 3556.378906 515.679688 3542.75 517.5625 3529.167969 C 528.199219 3459.125 578.660156 3382.195312 607.449219 3342.976562 C 590.902344 3346.453125 572.902344 3351.980469 563.183594 3360.109375 C 562.535156 3360.679688 561.84375 3361.199219 561.117188 3361.667969 C 560.386719 3362.136719 559.628906 3362.550781 558.839844 3362.90625 C 558.046875 3363.261719 557.238281 3363.558594 556.402344 3363.796875 C 555.570312 3364.03125 554.722656 3364.207031 553.863281 3364.316406 C 553.003906 3364.425781 552.144531 3364.472656 551.277344 3364.457031 C 550.410156 3364.441406 549.550781 3364.359375 548.695312 3364.214844 C 547.84375 3364.070312 547.003906 3363.863281 546.179688 3363.59375 C 545.355469 3363.324219 544.558594 3362.996094 543.78125 3362.609375 C 533.96875 3357.628906 528.828125 3343.597656 530.027344 3325.074219 C 530.847656 3312.425781 535.527344 3287.160156 557.683594 3260.105469 C 578.976562 3234.089844 610.410156 3213.605469 651.082031 3199.203125 C 665.980469 3194.164062 681.191406 3190.367188 696.707031 3187.804688 C 726.632812 3182.191406 748.257812 3178.132812 774.980469 3141.5625 C 815.015625 3086.78125 1115.179688 2654.980469 1143.78125 2613.832031 C 1144.753906 2596.882812 1151.230469 2532.753906 1194.039062 2489.945312 C 1236.660156 2447.320312 1290.851562 2432.691406 1303.828125 2429.679688 C 1324.152344 2415.527344 1489.105469 2299 1576.917969 2185.238281 C 1631.453125 2114.578125 1665.023438 2041.144531 1687.238281 1992.550781 C 1698.171875 1968.628906 1706.070312 1951.34375 1713.308594 1940.835938 C 1744.742188 1895.164062 1794.449219 1858.269531 1861.054688 1831.210938 C 1913.464844 1809.914062 1976.511719 1794.554688 2048.449219 1785.578125 C 2124.964844 1776.378906 2201.683594 1774.183594 2278.597656 1778.988281 C 2279.875 1779.09375 2281.109375 1779.378906 2282.300781 1779.847656 C 2283.492188 1780.316406 2284.59375 1780.945312 2285.597656 1781.738281 C 2286.605469 1782.53125 2287.476562 1783.453125 2288.210938 1784.5 C 2288.945312 1785.550781 2289.511719 1786.683594 2289.914062 1787.898438 C 2290.59375 1789.964844 2306.445312 1839.300781 2293.6875 1906.292969 C 2281.992188 1967.683594 2243 2056.148438 2123.636719 2128.964844 C 1914.582031 2256.496094 1763.527344 2295.4375 1740.605469 2300.871094 L 1426.257812 2535.953125 C 1425.53125 2552.140625 1420.113281 2592.15625 1386.5 2629.894531 C 1345.46875 2675.957031 1291.742188 2692.609375 1275.554688 2696.765625 C 1241.386719 2738.886719 905.542969 3154.441406 807.300781 3333.84375 C 792.527344 3360.835938 767.46875 3385.289062 738.460938 3413.605469 C 685.878906 3464.921875 620.464844 3528.789062 576.941406 3643.695312 C 572.667969 3654.945312 564.832031 3658.796875 558.003906 3658.796875 Z M 552.117188 3635.417969 Z M 637.570312 3312.269531 C 638.808594 3312.269531 640.023438 3312.445312 641.210938 3312.789062 C 642.402344 3313.136719 643.519531 3313.644531 644.566406 3314.308594 C 645.609375 3314.972656 646.542969 3315.769531 647.359375 3316.703125 C 648.179688 3317.632812 648.851562 3318.660156 649.375 3319.78125 C 649.898438 3320.90625 650.257812 3322.078125 650.449219 3323.304688 C 650.640625 3324.527344 650.65625 3325.753906 650.496094 3326.984375 C 650.335938 3328.210938 650.007812 3329.394531 649.511719 3330.53125 C 649.015625 3331.664062 648.371094 3332.707031 647.578125 3333.660156 C 646.671875 3334.746094 556.976562 3443.171875 543.332031 3533.070312 C 537.535156 3571.226562 547.722656 3609.097656 555.988281 3625.589844 C 601.46875 3510.882812 667.179688 3446.734375 720.242188 3394.941406 C 747.757812 3368.085938 771.519531 3344.890625 784.429688 3321.3125 C 888.59375 3131.082031 1243.085938 2695.316406 1258.121094 2676.871094 C 1259.074219 2675.703125 1260.191406 2674.726562 1261.484375 2673.949219 C 1262.773438 2673.167969 1264.15625 2672.628906 1265.632812 2672.332031 C 1266.199219 2672.210938 1325.136719 2659.574219 1367.027344 2612.550781 C 1402.0625 2573.222656 1400.289062 2530.542969 1400.269531 2530.117188 C 1400.214844 2529.042969 1400.289062 2527.980469 1400.496094 2526.921875 C 1400.703125 2525.867188 1401.03125 2524.855469 1401.484375 2523.878906 C 1401.941406 2522.90625 1402.507812 2522 1403.183594 2521.164062 C 1403.859375 2520.332031 1404.625 2519.589844 1405.484375 2518.941406 L 1727.160156 2278.359375 C 1728.667969 2277.234375 1730.339844 2276.46875 1732.175781 2276.066406 C 1786.449219 2264.113281 1935.273438 2213.328125 2110.027344 2106.722656 C 2198.804688 2052.5625 2251.886719 1983.929688 2267.789062 1902.730469 C 2271.027344 1886.488281 2272.601562 1870.089844 2272.511719 1853.53125 C 2272.425781 1836.972656 2270.675781 1820.589844 2267.261719 1804.382812 C 2195.035156 1800.546875 2123.011719 1802.925781 2051.199219 1811.519531 C 1854.71875 1836.09375 1770.671875 1903.445312 1734.761719 1955.621094 C 1728.824219 1964.246094 1720.929688 1981.515625 1710.9375 2003.378906 C 1688.230469 2053.058594 1653.914062 2128.132812 1597.542969 2201.160156 L 1587.222656 2193.195312 L 1597.542969 2201.160156 C 1501.785156 2325.230469 1324 2447.472656 1316.476562 2452.621094 C 1314.996094 2453.628906 1313.378906 2454.308594 1311.621094 2454.652344 C 1311.074219 2454.761719 1254.402344 2466.429688 1212.460938 2508.375 C 1171.398438 2549.441406 1169.679688 2617.691406 1169.660156 2618.375 C 1169.609375 2621.015625 1168.835938 2623.421875 1167.332031 2625.59375 C 1164.042969 2630.324219 838.019531 3099.449219 796.015625 3156.9375 C 763.195312 3201.851562 733.226562 3207.472656 701.503906 3213.429688 C 687.3125 3215.746094 673.402344 3219.199219 659.773438 3223.785156 C 589.425781 3248.683594 567.011719 3287.320312 559.914062 3308.132812 C 556.921875 3316.328125 555.625 3324.78125 556.015625 3333.496094 C 584.792969 3316.800781 630.832031 3312.765625 636.5625 3312.324219 C 636.894531 3312.285156 637.234375 3312.269531 637.570312 3312.269531 Z M 637.570312 3312.269531 " fill-opacity="1" fill-rule="nonzero"/><path fill="#ffffff" d="M 3146.210938 259.007812 C 3144.386719 259.011719 3142.644531 258.648438 3140.972656 257.914062 C 3139.304688 257.183594 3137.855469 256.148438 3136.621094 254.804688 C 3106.402344 221.996094 3095.171875 225.039062 3094.710938 225.171875 C 3092.558594 225.84375 3089.679688 230.605469 3088.4375 239.453125 C 3088.3125 240.296875 3088.109375 241.125 3087.828125 241.929688 C 3087.542969 242.734375 3087.183594 243.503906 3086.746094 244.238281 C 3086.3125 244.972656 3085.808594 245.65625 3085.238281 246.292969 C 3084.667969 246.929688 3084.042969 247.503906 3083.359375 248.015625 C 3082.675781 248.527344 3081.949219 248.96875 3081.179688 249.339844 C 3080.410156 249.707031 3079.613281 250 3078.785156 250.214844 C 3077.957031 250.425781 3077.117188 250.554688 3076.265625 250.605469 C 3075.414062 250.652344 3074.566406 250.617188 3073.71875 250.496094 C 3072.875 250.378906 3072.046875 250.179688 3071.242188 249.898438 C 3070.433594 249.617188 3069.664062 249.257812 3068.929688 248.828125 C 3068.191406 248.394531 3067.503906 247.894531 3066.867188 247.324219 C 3066.230469 246.757812 3065.652344 246.132812 3065.136719 245.453125 C 3064.621094 244.773438 3064.179688 244.046875 3063.804688 243.277344 C 3063.433594 242.511719 3063.140625 241.714844 3062.921875 240.886719 C 3062.707031 240.0625 3062.574219 239.222656 3062.523438 238.371094 C 3062.46875 237.519531 3062.503906 236.667969 3062.617188 235.824219 C 3066.195312 210.386719 3079.394531 202.636719 3086.953125 200.28125 C 3105.1875 194.59375 3127.714844 206.644531 3155.800781 237.140625 C 3156.660156 238.070312 3157.367188 239.105469 3157.921875 240.242188 C 3158.480469 241.378906 3158.863281 242.574219 3159.070312 243.820312 C 3159.277344 245.070312 3159.304688 246.324219 3159.148438 247.582031 C 3158.992188 248.835938 3158.660156 250.046875 3158.152344 251.203125 C 3157.644531 252.363281 3156.980469 253.425781 3156.164062 254.394531 C 3155.34375 255.359375 3154.40625 256.191406 3153.347656 256.882812 C 3152.285156 257.578125 3151.148438 258.105469 3149.9375 258.464844 C 3148.722656 258.828125 3147.484375 259.007812 3146.21875 259.007812 Z M 3146.210938 259.007812 " fill-opacity="1" fill-rule="nonzero"/><path fill="#ffffff" d="M 3242.128906 310.496094 C 3241.84375 310.496094 3241.5625 310.496094 3241.277344 310.46875 L 3189.839844 307.140625 C 3188.984375 307.085938 3188.144531 306.949219 3187.316406 306.726562 C 3186.488281 306.507812 3185.691406 306.207031 3184.925781 305.828125 C 3184.15625 305.449219 3183.433594 305 3182.753906 304.480469 C 3182.074219 303.960938 3181.453125 303.378906 3180.886719 302.734375 C 3180.324219 302.09375 3179.824219 301.398438 3179.398438 300.660156 C 3178.96875 299.917969 3178.617188 299.144531 3178.339844 298.332031 C 3178.0625 297.523438 3177.871094 296.691406 3177.757812 295.84375 C 3177.644531 294.996094 3177.617188 294.144531 3177.671875 293.289062 C 3177.726562 292.433594 3177.867188 291.59375 3178.085938 290.769531 C 3178.308594 289.941406 3178.605469 289.144531 3178.984375 288.375 C 3179.363281 287.605469 3179.8125 286.882812 3180.332031 286.203125 C 3180.851562 285.523438 3181.433594 284.902344 3182.078125 284.335938 C 3182.71875 283.773438 3183.414062 283.273438 3184.152344 282.847656 C 3184.894531 282.417969 3185.667969 282.066406 3186.480469 281.789062 C 3187.289062 281.515625 3188.121094 281.320312 3188.96875 281.207031 C 3189.816406 281.09375 3190.667969 281.066406 3191.523438 281.121094 L 3242.957031 284.449219 C 3243.792969 284.5 3244.617188 284.632812 3245.429688 284.847656 C 3246.242188 285.058594 3247.027344 285.347656 3247.78125 285.710938 C 3248.539062 286.074219 3249.25 286.503906 3249.925781 287.007812 C 3250.597656 287.507812 3251.214844 288.070312 3251.777344 288.6875 C 3252.34375 289.308594 3252.84375 289.976562 3253.277344 290.695312 C 3253.714844 291.414062 3254.074219 292.164062 3254.367188 292.953125 C 3254.65625 293.738281 3254.867188 294.546875 3255.003906 295.375 C 3255.136719 296.203125 3255.191406 297.035156 3255.164062 297.875 C 3255.136719 298.710938 3255.03125 299.539062 3254.84375 300.359375 C 3254.65625 301.175781 3254.394531 301.96875 3254.054688 302.734375 C 3253.714844 303.5 3253.304688 304.230469 3252.824219 304.917969 C 3252.347656 305.605469 3251.804688 306.242188 3251.203125 306.824219 C 3250.601562 307.40625 3249.949219 307.929688 3249.246094 308.386719 C 3248.542969 308.84375 3247.800781 309.230469 3247.023438 309.542969 C 3246.246094 309.859375 3245.445312 310.097656 3244.621094 310.257812 C 3243.800781 310.417969 3242.96875 310.496094 3242.128906 310.496094 Z M 3242.128906 310.496094 " fill-opacity="1" fill-rule="nonzero"/><path fill="#ffffff" d="M 3231.976562 255.011719 C 3231.300781 255.011719 3230.628906 254.960938 3229.960938 254.855469 L 3206.652344 251.234375 C 3205.796875 251.113281 3204.964844 250.90625 3204.148438 250.621094 C 3203.335938 250.332031 3202.558594 249.96875 3201.816406 249.527344 C 3201.078125 249.085938 3200.386719 248.574219 3199.746094 247.996094 C 3199.105469 247.417969 3198.53125 246.78125 3198.015625 246.089844 C 3197.503906 245.394531 3197.0625 244.65625 3196.695312 243.878906 C 3196.328125 243.097656 3196.039062 242.285156 3195.832031 241.449219 C 3195.628906 240.613281 3195.503906 239.761719 3195.46875 238.898438 C 3195.429688 238.039062 3195.476562 237.179688 3195.609375 236.328125 C 3195.742188 235.476562 3195.957031 234.644531 3196.253906 233.832031 C 3196.550781 233.023438 3196.925781 232.25 3197.375 231.515625 C 3197.828125 230.78125 3198.34375 230.09375 3198.933594 229.460938 C 3199.519531 228.828125 3200.160156 228.261719 3200.863281 227.757812 C 3201.5625 227.25 3202.304688 226.820312 3203.089844 226.460938 C 3203.875 226.105469 3204.6875 225.828125 3205.527344 225.632812 C 3206.367188 225.4375 3207.21875 225.324219 3208.082031 225.296875 C 3208.945312 225.269531 3209.800781 225.328125 3210.652344 225.472656 L 3233.960938 229.089844 C 3234.765625 229.214844 3235.554688 229.414062 3236.320312 229.683594 C 3237.089844 229.953125 3237.824219 230.296875 3238.527344 230.703125 C 3239.230469 231.113281 3239.890625 231.585938 3240.507812 232.117188 C 3241.121094 232.648438 3241.683594 233.234375 3242.1875 233.871094 C 3242.695312 234.511719 3243.136719 235.1875 3243.515625 235.910156 C 3243.894531 236.628906 3244.203125 237.378906 3244.441406 238.15625 C 3244.679688 238.9375 3244.84375 239.730469 3244.933594 240.539062 C 3245.023438 241.347656 3245.035156 242.160156 3244.976562 242.96875 C 3244.914062 243.78125 3244.777344 244.582031 3244.566406 245.367188 C 3244.351562 246.152344 3244.070312 246.914062 3243.714844 247.644531 C 3243.363281 248.378906 3242.941406 249.074219 3242.457031 249.726562 C 3241.972656 250.382812 3241.433594 250.984375 3240.835938 251.539062 C 3240.238281 252.09375 3239.597656 252.585938 3238.90625 253.019531 C 3238.21875 253.449219 3237.492188 253.816406 3236.734375 254.113281 C 3235.976562 254.410156 3235.199219 254.632812 3234.398438 254.785156 C 3233.597656 254.9375 3232.792969 255.011719 3231.976562 255.011719 Z M 3231.976562 255.011719 " fill-opacity="1" fill-rule="nonzero"/><path fill="#ffffff" d="M 2437.53125 1969.121094 C 2395.195312 1969.121094 2383.550781 1956.171875 2378.609375 1945.59375 C 2362.019531 1910.0625 2413.332031 1856.410156 2499.8125 1772.269531 C 2512.519531 1759.902344 2524.523438 1748.226562 2536.019531 1736.730469 C 2587.984375 1684.761719 2584.839844 1665.785156 2582.636719 1661.207031 C 2580.183594 1656.109375 2565.535156 1640.222656 2479.828125 1649.804688 C 2444.285156 1653.777344 2422.722656 1646.496094 2415.730469 1628.167969 C 2398.507812 1583.019531 2491.917969 1504.9375 2517.878906 1486.496094 C 2518.574219 1486 2519.3125 1485.578125 2520.09375 1485.226562 C 2520.875 1484.878906 2521.683594 1484.609375 2522.519531 1484.417969 C 2523.351562 1484.226562 2524.199219 1484.117188 2525.054688 1484.09375 C 2525.910156 1484.070312 2526.757812 1484.128906 2527.601562 1484.269531 C 2528.449219 1484.414062 2529.269531 1484.636719 2530.070312 1484.941406 C 2530.867188 1485.246094 2531.632812 1485.628906 2532.355469 1486.082031 C 2533.082031 1486.539062 2533.753906 1487.058594 2534.378906 1487.644531 C 2535 1488.234375 2535.558594 1488.878906 2536.054688 1489.574219 C 2536.550781 1490.273438 2536.972656 1491.011719 2537.324219 1491.792969 C 2537.675781 1492.574219 2537.945312 1493.382812 2538.136719 1494.21875 C 2538.324219 1495.050781 2538.433594 1495.894531 2538.457031 1496.753906 C 2538.484375 1497.609375 2538.425781 1498.457031 2538.28125 1499.300781 C 2538.136719 1500.144531 2537.914062 1500.96875 2537.609375 1501.769531 C 2537.304688 1502.566406 2536.925781 1503.332031 2536.46875 1504.054688 C 2536.015625 1504.78125 2535.492188 1505.453125 2534.90625 1506.078125 C 2534.316406 1506.699219 2533.675781 1507.257812 2532.976562 1507.753906 C 2478.15625 1546.695312 2434.175781 1603.359375 2440.09375 1618.871094 C 2441.335938 1622.128906 2450.496094 1626.847656 2476.933594 1623.886719 C 2552.476562 1615.441406 2593.535156 1623.707031 2606.136719 1649.902344 C 2618.007812 1674.585938 2601.585938 1708.035156 2554.460938 1755.164062 C 2542.835938 1766.785156 2530.210938 1779.066406 2518 1790.957031 C 2486.164062 1821.929688 2453.253906 1853.96875 2430.371094 1881.507812 C 2398.953125 1919.351562 2400.894531 1931.679688 2402.238281 1934.554688 C 2404.96875 1940.410156 2422.660156 1945.761719 2463.519531 1941.570312 C 2624.800781 1925.027344 2724.996094 1783.519531 2725.984375 1782.082031 C 2726.472656 1781.386719 2727.027344 1780.746094 2727.644531 1780.15625 C 2728.261719 1779.570312 2728.929688 1779.046875 2729.648438 1778.589844 C 2730.367188 1778.132812 2731.125 1777.75 2731.917969 1777.441406 C 2732.714844 1777.132812 2733.53125 1776.90625 2734.367188 1776.757812 C 2735.207031 1776.609375 2736.054688 1776.542969 2736.90625 1776.558594 C 2737.757812 1776.578125 2738.597656 1776.675781 2739.429688 1776.859375 C 2740.261719 1777.042969 2741.070312 1777.304688 2741.851562 1777.644531 C 2742.632812 1777.984375 2743.371094 1778.398438 2744.074219 1778.882812 C 2744.773438 1779.371094 2745.417969 1779.917969 2746.011719 1780.53125 C 2746.601562 1781.144531 2747.128906 1781.808594 2747.59375 1782.523438 C 2748.054688 1783.238281 2748.441406 1783.992188 2748.757812 1784.785156 C 2749.070312 1785.578125 2749.304688 1786.394531 2749.460938 1787.230469 C 2749.613281 1788.070312 2749.6875 1788.914062 2749.675781 1789.765625 C 2749.664062 1790.617188 2749.570312 1791.460938 2749.394531 1792.292969 C 2749.214844 1793.128906 2748.960938 1793.9375 2748.625 1794.71875 C 2748.292969 1795.503906 2747.882812 1796.246094 2747.402344 1796.949219 C 2746.316406 1798.515625 2720.257812 1835.761719 2672.679688 1875.511719 C 2628.601562 1912.335938 2557 1958.183594 2466.179688 1967.5 C 2456.65625 1968.523438 2447.105469 1969.066406 2437.53125 1969.121094 Z M 2437.53125 1969.121094 " fill-opacity="1" fill-rule="nonzero"/></svg>