<?xml version="1.0" encoding="UTF-8"?>
<!DOCTYPE svg PUBLIC "-//W3C//DTD SVG 1.1//EN" "http://www.w3.org/Graphics/SVG/1.1/DTD/svg11.dtd">
<svg xmlns="http://www.w3.org/2000/svg" version="1.1" width="512px" height="512px" style="shape-rendering:geometricPrecision; text-rendering:geometricPrecision; image-rendering:optimizeQuality; fill-rule:evenodd; clip-rule:evenodd" xmlns:xlink="http://www.w3.org/1999/xlink">
<g><path style="opacity:1" fill="#f4f4f4" d="M 250.5,-0.5 C 253.833,-0.5 257.167,-0.5 260.5,-0.5C 270.042,5.36676 279.042,12.0334 287.5,19.5C 287.973,20.9063 288.973,21.573 290.5,21.5C 294.105,23.4719 297.105,26.1385 299.5,29.5C 300.262,31.2624 301.596,32.2624 303.5,32.5C 308.298,36.7967 312.965,41.2967 317.5,46C 305.283,52.6041 293.283,59.4374 281.5,66.5C 279.973,66.427 278.973,67.0937 278.5,68.5C 276.973,68.427 275.973,69.0937 275.5,70.5C 271.538,73.4884 267.538,76.4884 263.5,79.5C 261.973,79.427 260.973,80.0937 260.5,81.5C 259.047,84.231 257.047,85.231 254.5,84.5C 254.027,83.0937 253.027,82.427 251.5,82.5C 245.143,77.8017 238.81,73.135 232.5,68.5C 232.027,67.0937 231.027,66.427 229.5,66.5C 229.027,65.0937 228.027,64.427 226.5,64.5C 226.027,63.0937 225.027,62.427 223.5,62.5C 213.661,56.8558 203.661,51.3558 193.5,46C 198.035,41.2967 202.702,36.7967 207.5,32.5C 209.404,32.2624 210.738,31.2624 211.5,29.5C 213.895,26.1385 216.895,23.4719 220.5,21.5C 222.027,21.573 223.027,20.9063 223.5,19.5C 231.958,12.0334 240.958,5.36676 250.5,-0.5 Z"/></g>
<g><path style="opacity:0.332" fill="#000000" d="M 223.5,19.5 C 223.027,20.9063 222.027,21.573 220.5,21.5C 220.973,20.0937 221.973,19.427 223.5,19.5 Z"/></g>
<g><path style="opacity:0.325" fill="#000000" d="M 287.5,19.5 C 289.027,19.427 290.027,20.0937 290.5,21.5C 288.973,21.573 287.973,20.9063 287.5,19.5 Z"/></g>
<g><path style="opacity:0.356" fill="#000000" d="M 211.5,29.5 C 210.738,31.2624 209.404,32.2624 207.5,32.5C 208.262,30.7376 209.596,29.7376 211.5,29.5 Z"/></g>
<g><path style="opacity:0.344" fill="#000000" d="M 299.5,29.5 C 301.404,29.7376 302.738,30.7376 303.5,32.5C 301.596,32.2624 300.262,31.2624 299.5,29.5 Z"/></g>
<g><path style="opacity:1" fill="#f5f5f5" d="M 218.5,94.5 C 218.973,95.9063 219.973,96.573 221.5,96.5C 223.23,97.0256 224.564,98.0256 225.5,99.5C 225.443,100.609 225.11,101.609 224.5,102.5C 224.5,103.167 224.167,103.5 223.5,103.5C 221.973,103.427 220.973,104.094 220.5,105.5C 220.5,106.167 220.167,106.5 219.5,106.5C 217.973,106.427 216.973,107.094 216.5,108.5C 213.729,111.392 210.729,114.058 207.5,116.5C 205.973,116.427 204.973,117.094 204.5,118.5C 203.833,119.833 202.833,120.833 201.5,121.5C 199.596,121.738 198.262,122.738 197.5,124.5C 191.167,131.5 184.5,138.167 177.5,144.5C 176.094,144.973 175.427,145.973 175.5,147.5C 174.167,149.5 172.5,151.167 170.5,152.5C 169.094,152.973 168.427,153.973 168.5,155.5C 166.636,158.55 164.303,161.217 161.5,163.5C 140.314,153.438 118.314,145.772 95.5,140.5C 94.8902,139.609 94.5569,138.609 94.5,137.5C 102.712,116.724 113.712,97.724 127.5,80.5C 128.906,80.0269 129.573,79.0269 129.5,77.5C 130.124,75.246 131.457,73.5794 133.5,72.5C 134.906,72.0269 135.573,71.0269 135.5,69.5C 140.56,61.6495 147.56,59.1495 156.5,62C 178.838,69.9988 199.505,80.8321 218.5,94.5 Z"/></g>
<g><path style="opacity:1" fill="#f5f5f5" d="M 371.5,65.5 C 371.833,66.5 372.5,67.1667 373.5,67.5C 377.899,71.5683 381.565,76.235 384.5,81.5C 384.427,83.0269 385.094,84.0269 386.5,84.5C 387.974,85.4363 388.974,86.7697 389.5,88.5C 389.427,90.0269 390.094,91.0269 391.5,91.5C 401.877,105.578 410.21,120.911 416.5,137.5C 416.443,138.609 416.11,139.609 415.5,140.5C 392.686,145.772 370.686,153.438 349.5,163.5C 346.697,161.217 344.364,158.55 342.5,155.5C 342.573,153.973 341.906,152.973 340.5,152.5C 338.5,151.167 336.833,149.5 335.5,147.5C 335.573,145.973 334.906,144.973 333.5,144.5C 326.5,138.167 319.833,131.5 313.5,124.5C 312.738,122.738 311.404,121.738 309.5,121.5C 308.167,120.833 307.167,119.833 306.5,118.5C 306.027,117.094 305.027,116.427 303.5,116.5C 297.309,111.248 290.976,106.248 284.5,101.5C 284.833,100.833 285.167,100.167 285.5,99.5C 308.117,81.9389 333.284,68.9389 361,60.5C 365.361,60.6115 368.861,62.2782 371.5,65.5 Z"/></g>
<g><path style="opacity:0.328" fill="#000000" d="M 223.5,62.5 C 225.027,62.427 226.027,63.0937 226.5,64.5C 224.973,64.573 223.973,63.9063 223.5,62.5 Z"/></g>
<g><path style="opacity:0.324" fill="#000000" d="M 226.5,64.5 C 228.027,64.427 229.027,65.0937 229.5,66.5C 227.973,66.573 226.973,65.9063 226.5,64.5 Z"/></g>
<g><path style="opacity:0.354" fill="#000000" d="M 371.5,65.5 C 372.833,65.5 373.5,66.1667 373.5,67.5C 372.5,67.1667 371.833,66.5 371.5,65.5 Z"/></g>
<g><path style="opacity:0.321" fill="#000000" d="M 229.5,66.5 C 231.027,66.427 232.027,67.0937 232.5,68.5C 230.973,68.573 229.973,67.9063 229.5,66.5 Z"/></g>
<g><path style="opacity:0.33" fill="#000000" d="M 281.5,66.5 C 281.027,67.9063 280.027,68.573 278.5,68.5C 278.973,67.0937 279.973,66.427 281.5,66.5 Z"/></g>
<g><path style="opacity:0.323" fill="#000000" d="M 278.5,68.5 C 278.027,69.9063 277.027,70.573 275.5,70.5C 275.973,69.0937 276.973,68.427 278.5,68.5 Z"/></g>
<g><path style="opacity:0.349" fill="#000000" d="M 135.5,69.5 C 135.573,71.0269 134.906,72.0269 133.5,72.5C 133.427,70.9731 134.094,69.9731 135.5,69.5 Z"/></g>
<g><path style="opacity:0.345" fill="#000000" d="M 129.5,77.5 C 129.573,79.0269 128.906,80.0269 127.5,80.5C 127.427,78.9731 128.094,77.9731 129.5,77.5 Z"/></g>
<g><path style="opacity:0.317" fill="#000000" d="M 263.5,79.5 C 263.027,80.9063 262.027,81.573 260.5,81.5C 260.973,80.0937 261.973,79.427 263.5,79.5 Z"/></g>
<g><path style="opacity:0.331" fill="#000000" d="M 384.5,81.5 C 385.906,81.9731 386.573,82.9731 386.5,84.5C 385.094,84.0269 384.427,83.0269 384.5,81.5 Z"/></g>
<g><path style="opacity:0.336" fill="#000000" d="M 251.5,82.5 C 253.027,82.427 254.027,83.0937 254.5,84.5C 252.973,84.573 251.973,83.9063 251.5,82.5 Z"/></g>
<g><path style="opacity:0.322" fill="#000000" d="M 389.5,88.5 C 390.906,88.9731 391.573,89.9731 391.5,91.5C 390.094,91.0269 389.427,90.0269 389.5,88.5 Z"/></g>
<g><path style="opacity:0.319" fill="#000000" d="M 218.5,94.5 C 220.027,94.427 221.027,95.0937 221.5,96.5C 219.973,96.573 218.973,95.9063 218.5,94.5 Z"/></g>
<g><path style="opacity:0.334" fill="#000000" d="M 225.5,99.5 C 228.015,100.86 227.682,101.86 224.5,102.5C 225.11,101.609 225.443,100.609 225.5,99.5 Z"/></g>
<g><path style="opacity:0.217" fill="#000000" d="M 285.5,99.5 C 285.167,100.167 284.833,100.833 284.5,101.5C 283.243,100.377 283.576,99.7107 285.5,99.5 Z"/></g>
<g><path style="opacity:0.346" fill="#000000" d="M 223.5,103.5 C 223.027,104.906 222.027,105.573 220.5,105.5C 220.973,104.094 221.973,103.427 223.5,103.5 Z"/></g>
<g><path style="opacity:0.346" fill="#000000" d="M 219.5,106.5 C 219.027,107.906 218.027,108.573 216.5,108.5C 216.973,107.094 217.973,106.427 219.5,106.5 Z"/></g>
<g><path style="opacity:0.308" fill="#000000" d="M 207.5,116.5 C 207.027,117.906 206.027,118.573 204.5,118.5C 204.973,117.094 205.973,116.427 207.5,116.5 Z"/></g>
<g><path style="opacity:0.31" fill="#000000" d="M 303.5,116.5 C 305.027,116.427 306.027,117.094 306.5,118.5C 304.973,118.573 303.973,117.906 303.5,116.5 Z"/></g>
<g><path style="opacity:1" fill="#f5f5f5" d="M 281.5,136.5 C 281.973,137.906 282.973,138.573 284.5,138.5C 286.5,139.833 288.167,141.5 289.5,143.5C 289.973,144.906 290.973,145.573 292.5,145.5C 299.833,152.167 306.833,159.167 313.5,166.5C 313.427,168.027 314.094,169.027 315.5,169.5C 317.167,170.5 318.5,171.833 319.5,173.5C 319.427,175.027 320.094,176.027 321.5,176.5C 322.774,177.189 322.774,178.023 321.5,179C 312.726,184.613 304.392,190.779 296.5,197.5C 294.251,198.08 292.585,199.413 291.5,201.5C 289.873,203.63 288.04,205.63 286,207.5C 265.667,192.833 245.333,192.833 225,207.5C 222.96,205.63 221.127,203.63 219.5,201.5C 218.415,199.413 216.749,198.08 214.5,197.5C 206.608,190.779 198.274,184.613 189.5,179C 188.226,178.023 188.226,177.189 189.5,176.5C 190.906,176.027 191.573,175.027 191.5,173.5C 192.5,171.833 193.833,170.5 195.5,169.5C 196.906,169.027 197.573,168.027 197.5,166.5C 204.167,159.167 211.167,152.167 218.5,145.5C 220.027,145.573 221.027,144.906 221.5,143.5C 222.833,141.5 224.5,139.833 226.5,138.5C 228.027,138.573 229.027,137.906 229.5,136.5C 235.247,131.446 241.247,126.613 247.5,122C 252.833,120 258.167,120 263.5,122C 269.753,126.613 275.753,131.446 281.5,136.5 Z"/></g>
<g><path style="opacity:0.343" fill="#000000" d="M 201.5,121.5 C 200.738,123.262 199.404,124.262 197.5,124.5C 198.262,122.738 199.596,121.738 201.5,121.5 Z"/></g>
<g><path style="opacity:0.344" fill="#000000" d="M 309.5,121.5 C 311.404,121.738 312.738,122.738 313.5,124.5C 311.596,124.262 310.262,123.262 309.5,121.5 Z"/></g>
<g><path style="opacity:0.308" fill="#000000" d="M 229.5,136.5 C 229.027,137.906 228.027,138.573 226.5,138.5C 226.973,137.094 227.973,136.427 229.5,136.5 Z"/></g>
<g><path style="opacity:0.308" fill="#000000" d="M 281.5,136.5 C 283.027,136.427 284.027,137.094 284.5,138.5C 282.973,138.573 281.973,137.906 281.5,136.5 Z"/></g>
<g><path style="opacity:0.383" fill="#000000" d="M 94.5,137.5 C 94.5569,138.609 94.8902,139.609 95.5,140.5C 93.4482,139.947 93.1148,138.947 94.5,137.5 Z"/></g>
<g><path style="opacity:0.381" fill="#000000" d="M 416.5,137.5 C 417.885,138.947 417.552,139.947 415.5,140.5C 416.11,139.609 416.443,138.609 416.5,137.5 Z"/></g>
<g><path style="opacity:0.357" fill="#000000" d="M 221.5,143.5 C 221.027,144.906 220.027,145.573 218.5,145.5C 218.973,144.094 219.973,143.427 221.5,143.5 Z"/></g>
<g><path style="opacity:0.357" fill="#000000" d="M 289.5,143.5 C 291.027,143.427 292.027,144.094 292.5,145.5C 290.973,145.573 289.973,144.906 289.5,143.5 Z"/></g>
<g><path style="opacity:0.339" fill="#000000" d="M 177.5,144.5 C 177.573,146.027 176.906,147.027 175.5,147.5C 175.427,145.973 176.094,144.973 177.5,144.5 Z"/></g>
<g><path style="opacity:0.338" fill="#000000" d="M 333.5,144.5 C 334.906,144.973 335.573,145.973 335.5,147.5C 334.094,147.027 333.427,146.027 333.5,144.5 Z"/></g>
<g><path style="opacity:0.318" fill="#000000" d="M 170.5,152.5 C 170.573,154.027 169.906,155.027 168.5,155.5C 168.427,153.973 169.094,152.973 170.5,152.5 Z"/></g>
<g><path style="opacity:0.328" fill="#000000" d="M 340.5,152.5 C 341.906,152.973 342.573,153.973 342.5,155.5C 341.094,155.027 340.427,154.027 340.5,152.5 Z"/></g>
<g><path style="opacity:0.345" fill="#000000" d="M 197.5,166.5 C 197.573,168.027 196.906,169.027 195.5,169.5C 195.427,167.973 196.094,166.973 197.5,166.5 Z"/></g>
<g><path style="opacity:0.333" fill="#000000" d="M 313.5,166.5 C 314.906,166.973 315.573,167.973 315.5,169.5C 314.094,169.027 313.427,168.027 313.5,166.5 Z"/></g>
<g><path style="opacity:1" fill="#f6f6f6" d="M 187.5,213.5 C 187.973,214.906 188.973,215.573 190.5,215.5C 191.833,216.167 192.833,217.167 193.5,218.5C 194.262,220.262 195.596,221.262 197.5,221.5C 198.5,221.833 199.167,222.5 199.5,223.5C 199.443,224.609 199.11,225.609 198.5,226.5C 197.833,227.833 196.833,228.833 195.5,229.5C 193.973,229.427 192.973,230.094 192.5,231.5C 190.833,233.833 188.833,235.833 186.5,237.5C 184.251,238.08 182.585,239.413 181.5,241.5C 179.167,244.5 176.5,247.167 173.5,249.5C 171.086,250.911 169.419,252.911 168.5,255.5C 167.167,257.5 165.5,259.167 163.5,260.5C 162.094,260.973 161.427,261.973 161.5,263.5C 160.833,264.833 159.833,265.833 158.5,266.5C 157.094,266.973 156.427,267.973 156.5,269.5C 156.44,270.043 156.107,270.376 155.5,270.5C 121.736,258.059 87.0697,249.392 51.5,244.5C 51.1667,243.833 50.8333,243.167 50.5,242.5C 52.4211,221.395 56.5878,200.728 63,180.5C 63.8596,177.367 65.3596,174.7 67.5,172.5C 69.0269,172.573 70.0269,171.906 70.5,170.5C 71.347,169.034 72.6803,168.2 74.5,168C 113.411,172.621 149.078,185.954 181.5,208C 183.763,209.617 185.763,211.45 187.5,213.5 Z"/></g>
<g><path style="opacity:1" fill="#f6f6f6" d="M 440.5,170.5 C 440.973,171.906 441.973,172.573 443.5,172.5C 445.64,174.7 447.14,177.367 448,180.5C 454.412,200.728 458.579,221.395 460.5,242.5C 460.167,243.167 459.833,243.833 459.5,244.5C 423.905,249.399 389.239,258.065 355.5,270.5C 353.507,268.172 351.507,265.839 349.5,263.5C 349.573,261.973 348.906,260.973 347.5,260.5C 345.833,259.5 344.5,258.167 343.5,256.5C 342.243,253.573 340.243,251.239 337.5,249.5C 334.5,247.167 331.833,244.5 329.5,241.5C 328.415,239.413 326.749,238.08 324.5,237.5C 322.167,235.833 320.167,233.833 318.5,231.5C 318.027,230.094 317.027,229.427 315.5,229.5C 314.167,228.833 313.167,227.833 312.5,226.5C 311.89,225.609 311.557,224.609 311.5,223.5C 311.833,222.5 312.5,221.833 313.5,221.5C 315.404,221.262 316.738,220.262 317.5,218.5C 318.167,217.167 319.167,216.167 320.5,215.5C 322.027,215.573 323.027,214.906 323.5,213.5C 342.32,198.416 363.32,186.916 386.5,179C 399.574,174.398 412.907,170.731 426.5,168C 429.833,167.333 433.167,167.333 436.5,168C 438.32,168.2 439.653,169.034 440.5,170.5 Z"/></g>
<g><path style="opacity:0.321" fill="#000000" d="M 70.5,170.5 C 70.0269,171.906 69.0269,172.573 67.5,172.5C 67.9731,171.094 68.9731,170.427 70.5,170.5 Z"/></g>
<g><path style="opacity:0.329" fill="#000000" d="M 440.5,170.5 C 442.027,170.427 443.027,171.094 443.5,172.5C 441.973,172.573 440.973,171.906 440.5,170.5 Z"/></g>
<g><path style="opacity:0.358" fill="#000000" d="M 191.5,173.5 C 191.573,175.027 190.906,176.027 189.5,176.5C 189.427,174.973 190.094,173.973 191.5,173.5 Z"/></g>
<g><path style="opacity:0.355" fill="#000000" d="M 319.5,173.5 C 320.906,173.973 321.573,174.973 321.5,176.5C 320.094,176.027 319.427,175.027 319.5,173.5 Z"/></g>
<g><path style="opacity:0.328" fill="#000000" d="M 214.5,197.5 C 216.749,198.08 218.415,199.413 219.5,201.5C 217.251,200.92 215.585,199.587 214.5,197.5 Z"/></g>
<g><path style="opacity:0.328" fill="#000000" d="M 296.5,197.5 C 295.415,199.587 293.749,200.92 291.5,201.5C 292.585,199.413 294.251,198.08 296.5,197.5 Z"/></g>
<g><path style="opacity:0.319" fill="#000000" d="M 187.5,213.5 C 189.027,213.427 190.027,214.094 190.5,215.5C 188.973,215.573 187.973,214.906 187.5,213.5 Z"/></g>
<g><path style="opacity:0.319" fill="#000000" d="M 323.5,213.5 C 323.027,214.906 322.027,215.573 320.5,215.5C 320.973,214.094 321.973,213.427 323.5,213.5 Z"/></g>
<g><path style="opacity:0.329" fill="#000000" d="M 193.5,218.5 C 195.404,218.738 196.738,219.738 197.5,221.5C 195.596,221.262 194.262,220.262 193.5,218.5 Z"/></g>
<g><path style="opacity:0.329" fill="#000000" d="M 317.5,218.5 C 316.738,220.262 315.404,221.262 313.5,221.5C 314.262,219.738 315.596,218.738 317.5,218.5 Z"/></g>
<g><path style="opacity:0.354" fill="#000000" d="M 199.5,223.5 C 200.885,224.947 200.552,225.947 198.5,226.5C 199.11,225.609 199.443,224.609 199.5,223.5 Z"/></g>
<g><path style="opacity:0.354" fill="#000000" d="M 311.5,223.5 C 311.557,224.609 311.89,225.609 312.5,226.5C 310.448,225.947 310.115,224.947 311.5,223.5 Z"/></g>
<g><path style="opacity:1" fill="#f4f4f4" d="M 300.5,255.5 C 300.973,256.906 301.973,257.573 303.5,257.5C 310.5,263.833 317.167,270.5 323.5,277.5C 323.427,279.027 324.094,280.027 325.5,280.5C 327.233,281.008 327.566,281.841 326.5,283C 301.748,293.62 278.081,306.12 255.5,320.5C 232.549,305.856 208.549,293.022 183.5,282C 184.044,281.283 184.711,280.783 185.5,280.5C 186.906,280.027 187.573,279.027 187.5,277.5C 193.833,270.5 200.5,263.833 207.5,257.5C 209.027,257.573 210.027,256.906 210.5,255.5C 214.754,251.037 219.421,247.037 224.5,243.5C 226.027,243.573 227.027,242.906 227.5,241.5C 233.922,236.443 240.589,231.61 247.5,227C 251.741,225.543 256.074,225.209 260.5,226C 275.112,234.135 288.445,243.969 300.5,255.5 Z"/></g>
<g><path style="opacity:0.37" fill="#000000" d="M 195.5,229.5 C 195.027,230.906 194.027,231.573 192.5,231.5C 192.973,230.094 193.973,229.427 195.5,229.5 Z"/></g>
<g><path style="opacity:0.37" fill="#000000" d="M 315.5,229.5 C 317.027,229.427 318.027,230.094 318.5,231.5C 316.973,231.573 315.973,230.906 315.5,229.5 Z"/></g>
<g><path style="opacity:0.353" fill="#000000" d="M 186.5,237.5 C 185.415,239.587 183.749,240.92 181.5,241.5C 182.585,239.413 184.251,238.08 186.5,237.5 Z"/></g>
<g><path style="opacity:0.353" fill="#000000" d="M 324.5,237.5 C 326.749,238.08 328.415,239.413 329.5,241.5C 327.251,240.92 325.585,239.587 324.5,237.5 Z"/></g>
<g><path style="opacity:0.337" fill="#000000" d="M 227.5,241.5 C 227.027,242.906 226.027,243.573 224.5,243.5C 224.973,242.094 225.973,241.427 227.5,241.5 Z"/></g>
<g><path style="opacity:0.28" fill="#000000" d="M 50.5,242.5 C 50.8333,243.167 51.1667,243.833 51.5,244.5C 49.5759,244.289 49.2426,243.623 50.5,242.5 Z"/></g>
<g><path style="opacity:0.268" fill="#000000" d="M 460.5,242.5 C 461.757,243.623 461.424,244.289 459.5,244.5C 459.833,243.833 460.167,243.167 460.5,242.5 Z"/></g>
<g><path style="opacity:0.34" fill="#000000" d="M 173.5,249.5 C 172.581,252.089 170.914,254.089 168.5,255.5C 169.419,252.911 171.086,250.911 173.5,249.5 Z"/></g>
<g><path style="opacity:0.34" fill="#000000" d="M 337.5,249.5 C 340.243,251.239 342.243,253.573 343.5,256.5C 340.757,254.761 338.757,252.427 337.5,249.5 Z"/></g>
<g><path style="opacity:0.335" fill="#000000" d="M 210.5,255.5 C 210.027,256.906 209.027,257.573 207.5,257.5C 207.973,256.094 208.973,255.427 210.5,255.5 Z"/></g>
<g><path style="opacity:0.341" fill="#000000" d="M 300.5,255.5 C 302.027,255.427 303.027,256.094 303.5,257.5C 301.973,257.573 300.973,256.906 300.5,255.5 Z"/></g>
<g><path style="opacity:0.338" fill="#000000" d="M 163.5,260.5 C 163.573,262.027 162.906,263.027 161.5,263.5C 161.427,261.973 162.094,260.973 163.5,260.5 Z"/></g>
<g><path style="opacity:0.321" fill="#000000" d="M 347.5,260.5 C 348.906,260.973 349.573,261.973 349.5,263.5C 348.094,263.027 347.427,262.027 347.5,260.5 Z"/></g>
<g><path style="opacity:0.303" fill="#000000" d="M 158.5,266.5 C 158.573,268.027 157.906,269.027 156.5,269.5C 156.427,267.973 157.094,266.973 158.5,266.5 Z"/></g>
<g><path style="opacity:1" fill="#f9f9f9" d="M 243.5,348.5 C 243.5,349.167 243.5,349.833 243.5,350.5C 237.19,355.135 230.857,359.802 224.5,364.5C 222.973,364.427 221.973,365.094 221.5,366.5C 220.833,367.833 219.833,368.833 218.5,369.5C 216.973,369.427 215.973,370.094 215.5,371.5C 214.833,372.833 213.833,373.833 212.5,374.5C 210.596,374.738 209.262,375.738 208.5,377.5C 202.167,384.5 195.5,391.167 188.5,397.5C 187.094,397.973 186.427,398.973 186.5,400.5C 185.5,402.167 184.167,403.5 182.5,404.5C 181.094,404.973 180.427,405.973 180.5,407.5C 180.5,408.167 180.167,408.5 179.5,408.5C 178.094,408.973 177.427,409.973 177.5,411.5C 163.935,429.305 155.268,449.305 151.5,471.5C 150.833,476.5 150.167,481.5 149.5,486.5C 138.497,482.006 128.497,476.006 119.5,468.5C 119.027,467.094 118.027,466.427 116.5,466.5C 114.246,465.876 112.579,464.543 111.5,462.5C 111.027,461.094 110.027,460.427 108.5,460.5C 107.167,459.833 106.167,458.833 105.5,457.5C 105.027,456.094 104.027,455.427 102.5,455.5C 99.5,453.167 96.8333,450.5 94.5,447.5C 92.1667,444.5 89.5,441.833 86.5,439.5C 84.1667,437.833 82.1667,435.833 80.5,433.5C 80.573,431.973 79.9063,430.973 78.5,430.5C 75.1518,427.149 72.1518,423.482 69.5,419.5C 69.573,417.973 68.9063,416.973 67.5,416.5C 67.573,414.973 66.9063,413.973 65.5,413.5C 36.5716,372.673 26.0716,327.673 34,278.5C 37.3892,274.979 41.5559,273.313 46.5,273.5C 118.637,282.201 184.303,307.201 243.5,348.5 Z"/></g>
<g><path style="opacity:1" fill="#f9f9f9" d="M 432.5,430.5 C 431.094,430.973 430.427,431.973 430.5,433.5C 428.833,435.833 426.833,437.833 424.5,439.5C 421.5,441.833 418.833,444.5 416.5,447.5C 414.167,450.5 411.5,453.167 408.5,455.5C 406.973,455.427 405.973,456.094 405.5,457.5C 404.833,458.833 403.833,459.833 402.5,460.5C 400.973,460.427 399.973,461.094 399.5,462.5C 398.421,464.543 396.754,465.876 394.5,466.5C 392.973,466.427 391.973,467.094 391.5,468.5C 390.564,469.974 389.23,470.974 387.5,471.5C 385.973,471.427 384.973,472.094 384.5,473.5C 377.608,479.026 369.941,483.359 361.5,486.5C 360.833,481.5 360.167,476.5 359.5,471.5C 355.738,449.316 347.072,429.316 333.5,411.5C 333.573,409.973 332.906,408.973 331.5,408.5C 329.177,405.874 326.843,403.207 324.5,400.5C 324.573,398.973 323.906,397.973 322.5,397.5C 315.5,391.167 308.833,384.5 302.5,377.5C 301.738,375.738 300.404,374.738 298.5,374.5C 295.271,372.058 292.271,369.392 289.5,366.5C 289.027,365.094 288.027,364.427 286.5,364.5C 280.143,359.802 273.81,355.135 267.5,350.5C 267.5,349.833 267.5,349.167 267.5,348.5C 269.147,346.674 271.147,345.34 273.5,344.5C 275.027,344.573 276.027,343.906 276.5,342.5C 333.589,304.908 396.256,281.908 464.5,273.5C 472.24,273.614 477.407,277.281 480,284.5C 483.832,339.833 467.998,388.5 432.5,430.5 Z"/></g>
<g><path style="opacity:0.338" fill="#000000" d="M 187.5,277.5 C 187.573,279.027 186.906,280.027 185.5,280.5C 185.427,278.973 186.094,277.973 187.5,277.5 Z"/></g>
<g><path style="opacity:0.338" fill="#000000" d="M 323.5,277.5 C 324.906,277.973 325.573,278.973 325.5,280.5C 324.094,280.027 323.427,279.027 323.5,277.5 Z"/></g>
<g><path style="opacity:0.324" fill="#000000" d="M 276.5,342.5 C 276.027,343.906 275.027,344.573 273.5,344.5C 273.973,343.094 274.973,342.427 276.5,342.5 Z"/></g>
<g><path style="opacity:0.296" fill="#000000" d="M 243.5,348.5 C 246.167,349.167 246.167,349.833 243.5,350.5C 243.5,349.833 243.5,349.167 243.5,348.5 Z"/></g>
<g><path style="opacity:0.296" fill="#000000" d="M 267.5,348.5 C 267.5,349.167 267.5,349.833 267.5,350.5C 264.833,349.833 264.833,349.167 267.5,348.5 Z"/></g>
<g><path style="opacity:0.342" fill="#000000" d="M 224.5,364.5 C 224.027,365.906 223.027,366.573 221.5,366.5C 221.973,365.094 222.973,364.427 224.5,364.5 Z"/></g>
<g><path style="opacity:0.352" fill="#000000" d="M 286.5,364.5 C 288.027,364.427 289.027,365.094 289.5,366.5C 287.973,366.573 286.973,365.906 286.5,364.5 Z"/></g>
<g><path style="opacity:0.309" fill="#000000" d="M 218.5,369.5 C 218.027,370.906 217.027,371.573 215.5,371.5C 215.973,370.094 216.973,369.427 218.5,369.5 Z"/></g>
<g><path style="opacity:0.327" fill="#000000" d="M 212.5,374.5 C 211.738,376.262 210.404,377.262 208.5,377.5C 209.262,375.738 210.596,374.738 212.5,374.5 Z"/></g>
<g><path style="opacity:0.337" fill="#000000" d="M 298.5,374.5 C 300.404,374.738 301.738,375.738 302.5,377.5C 300.596,377.262 299.262,376.262 298.5,374.5 Z"/></g>
<g><path style="opacity:0.277" fill="#000000" d="M 257.5,379.5 C 256.167,379.5 254.833,379.5 253.5,379.5C 254.833,376.833 256.167,376.833 257.5,379.5 Z"/></g>
<g><path style="opacity:1" fill="#f9f9f9" d="M 253.5,379.5 C 254.833,379.5 256.167,379.5 257.5,379.5C 262.413,382.118 266.746,385.452 270.5,389.5C 270.973,390.906 271.973,391.573 273.5,391.5C 275.167,392.5 276.5,393.833 277.5,395.5C 277.973,396.906 278.973,397.573 280.5,397.5C 283.833,400.167 286.833,403.167 289.5,406.5C 291.833,409.5 294.5,412.167 297.5,414.5C 299.167,415.5 300.5,416.833 301.5,418.5C 301.427,420.027 302.094,421.027 303.5,421.5C 307.207,424.576 310.207,428.242 312.5,432.5C 312.427,434.027 313.094,435.027 314.5,435.5C 314.427,437.027 315.094,438.027 316.5,438.5C 329.817,457.086 333.484,477.419 327.5,499.5C 326.29,499.932 325.29,500.599 324.5,501.5C 308.692,506.261 292.692,509.594 276.5,511.5C 262.5,511.5 248.5,511.5 234.5,511.5C 218.522,509.704 202.855,506.371 187.5,501.5C 186.329,500.655 184.995,499.989 183.5,499.5C 177.412,477.497 181.079,457.164 194.5,438.5C 195.906,438.027 196.573,437.027 196.5,435.5C 197.786,432.883 199.453,430.55 201.5,428.5C 202.906,428.027 203.573,427.027 203.5,425.5C 204.5,423.833 205.833,422.5 207.5,421.5C 208.906,421.027 209.573,420.027 209.5,418.5C 210.5,416.833 211.833,415.5 213.5,414.5C 217.167,411.5 220.5,408.167 223.5,404.5C 225.5,401.833 227.833,399.5 230.5,397.5C 232.027,397.573 233.027,396.906 233.5,395.5C 234.5,393.833 235.833,392.5 237.5,391.5C 239.027,391.573 240.027,390.906 240.5,389.5C 244.254,385.452 248.587,382.118 253.5,379.5 Z"/></g>
<g><path style="opacity:0.308" fill="#000000" d="M 240.5,389.5 C 240.027,390.906 239.027,391.573 237.5,391.5C 237.973,390.094 238.973,389.427 240.5,389.5 Z"/></g>
<g><path style="opacity:0.307" fill="#000000" d="M 270.5,389.5 C 272.027,389.427 273.027,390.094 273.5,391.5C 271.973,391.573 270.973,390.906 270.5,389.5 Z"/></g>
<g><path style="opacity:0.362" fill="#000000" d="M 233.5,395.5 C 233.027,396.906 232.027,397.573 230.5,397.5C 230.973,396.094 231.973,395.427 233.5,395.5 Z"/></g>
<g><path style="opacity:0.354" fill="#000000" d="M 277.5,395.5 C 279.027,395.427 280.027,396.094 280.5,397.5C 278.973,397.573 277.973,396.906 277.5,395.5 Z"/></g>
<g><path style="opacity:0.306" fill="#000000" d="M 188.5,397.5 C 188.573,399.027 187.906,400.027 186.5,400.5C 186.427,398.973 187.094,397.973 188.5,397.5 Z"/></g>
<g><path style="opacity:0.322" fill="#000000" d="M 322.5,397.5 C 323.906,397.973 324.573,398.973 324.5,400.5C 323.094,400.027 322.427,399.027 322.5,397.5 Z"/></g>
<g><path style="opacity:0.35" fill="#000000" d="M 182.5,404.5 C 182.573,406.027 181.906,407.027 180.5,407.5C 180.427,405.973 181.094,404.973 182.5,404.5 Z"/></g>
<g><path style="opacity:0.324" fill="#000000" d="M 223.5,404.5 C 220.5,408.167 217.167,411.5 213.5,414.5C 215.833,410.167 219.167,406.833 223.5,404.5 Z"/></g>
<g><path style="opacity:0.333" fill="#000000" d="M 289.5,406.5 C 293.167,408.167 295.833,410.833 297.5,414.5C 294.5,412.167 291.833,409.5 289.5,406.5 Z"/></g>
<g><path style="opacity:0.314" fill="#000000" d="M 179.5,408.5 C 179.573,410.027 178.906,411.027 177.5,411.5C 177.427,409.973 178.094,408.973 179.5,408.5 Z"/></g>
<g><path style="opacity:0.315" fill="#000000" d="M 331.5,408.5 C 332.906,408.973 333.573,409.973 333.5,411.5C 332.094,411.027 331.427,410.027 331.5,408.5 Z"/></g>
<g><path style="opacity:0.319" fill="#000000" d="M 65.5,413.5 C 66.9063,413.973 67.573,414.973 67.5,416.5C 66.0937,416.027 65.427,415.027 65.5,413.5 Z"/></g>
<g><path style="opacity:0.313" fill="#000000" d="M 67.5,416.5 C 68.9063,416.973 69.573,417.973 69.5,419.5C 68.0937,419.027 67.427,418.027 67.5,416.5 Z"/></g>
<g><path style="opacity:0.363" fill="#000000" d="M 209.5,418.5 C 209.573,420.027 208.906,421.027 207.5,421.5C 207.427,419.973 208.094,418.973 209.5,418.5 Z"/></g>
<g><path style="opacity:0.358" fill="#000000" d="M 301.5,418.5 C 302.906,418.973 303.573,419.973 303.5,421.5C 302.094,421.027 301.427,420.027 301.5,418.5 Z"/></g>
<g><path style="opacity:0.311" fill="#000000" d="M 203.5,425.5 C 203.573,427.027 202.906,428.027 201.5,428.5C 201.427,426.973 202.094,425.973 203.5,425.5 Z"/></g>
<g><path style="opacity:0.34" fill="#000000" d="M 78.5,430.5 C 79.9063,430.973 80.573,431.973 80.5,433.5C 79.0937,433.027 78.427,432.027 78.5,430.5 Z"/></g>
<g><path style="opacity:0.334" fill="#000000" d="M 432.5,430.5 C 432.573,432.027 431.906,433.027 430.5,433.5C 430.427,431.973 431.094,430.973 432.5,430.5 Z"/></g>
<g><path style="opacity:0.326" fill="#000000" d="M 312.5,432.5 C 313.906,432.973 314.573,433.973 314.5,435.5C 313.094,435.027 312.427,434.027 312.5,432.5 Z"/></g>
<g><path style="opacity:0.327" fill="#000000" d="M 196.5,435.5 C 196.573,437.027 195.906,438.027 194.5,438.5C 194.427,436.973 195.094,435.973 196.5,435.5 Z"/></g>
<g><path style="opacity:0.322" fill="#000000" d="M 314.5,435.5 C 315.906,435.973 316.573,436.973 316.5,438.5C 315.094,438.027 314.427,437.027 314.5,435.5 Z"/></g>
<g><path style="opacity:0.336" fill="#000000" d="M 86.5,439.5 C 89.5,441.833 92.1667,444.5 94.5,447.5C 90.8333,445.833 88.1667,443.167 86.5,439.5 Z"/></g>
<g><path style="opacity:0.346" fill="#000000" d="M 424.5,439.5 C 422.833,443.167 420.167,445.833 416.5,447.5C 418.833,444.5 421.5,441.833 424.5,439.5 Z"/></g>
<g><path style="opacity:0.331" fill="#000000" d="M 102.5,455.5 C 104.027,455.427 105.027,456.094 105.5,457.5C 103.973,457.573 102.973,456.906 102.5,455.5 Z"/></g>
<g><path style="opacity:0.328" fill="#000000" d="M 408.5,455.5 C 408.027,456.906 407.027,457.573 405.5,457.5C 405.973,456.094 406.973,455.427 408.5,455.5 Z"/></g>
<g><path style="opacity:0.369" fill="#000000" d="M 108.5,460.5 C 110.027,460.427 111.027,461.094 111.5,462.5C 109.973,462.573 108.973,461.906 108.5,460.5 Z"/></g>
<g><path style="opacity:0.368" fill="#000000" d="M 402.5,460.5 C 402.027,461.906 401.027,462.573 399.5,462.5C 399.973,461.094 400.973,460.427 402.5,460.5 Z"/></g>
<g><path style="opacity:0.338" fill="#000000" d="M 116.5,466.5 C 118.027,466.427 119.027,467.094 119.5,468.5C 117.973,468.573 116.973,467.906 116.5,466.5 Z"/></g>
<g><path style="opacity:0.342" fill="#000000" d="M 394.5,466.5 C 394.027,467.906 393.027,468.573 391.5,468.5C 391.973,467.094 392.973,466.427 394.5,466.5 Z"/></g>
<g><path style="opacity:0.326" fill="#000000" d="M 151.5,471.5 C 151.828,476.875 151.495,482.208 150.5,487.5C 149.893,487.376 149.56,487.043 149.5,486.5C 150.167,481.5 150.833,476.5 151.5,471.5 Z"/></g>
<g><path style="opacity:0.48" fill="#000000" d="M 359.5,471.5 C 360.167,476.5 360.833,481.5 361.5,486.5C 361.44,487.043 361.107,487.376 360.5,487.5C 359.505,482.208 359.172,476.875 359.5,471.5 Z"/></g>
<g><path style="opacity:0.326" fill="#000000" d="M 387.5,471.5 C 387.027,472.906 386.027,473.573 384.5,473.5C 384.973,472.094 385.973,471.427 387.5,471.5 Z"/></g>
<g><path style="opacity:0.417" fill="#000000" d="M 183.5,499.5 C 184.995,499.989 186.329,500.655 187.5,501.5C 185.517,501.843 184.183,501.176 183.5,499.5 Z"/></g>
<g><path style="opacity:0.325" fill="#000000" d="M 327.5,499.5 C 327.179,501.048 326.179,501.715 324.5,501.5C 325.29,500.599 326.29,499.932 327.5,499.5 Z"/></g>
</svg>
