<svg xmlns="http://www.w3.org/2000/svg" xmlns:xlink="http://www.w3.org/1999/xlink" viewBox="0,0,256,256" width="50px" height="50px" fill-rule="nonzero"><g fill="#ffffff" fill-rule="nonzero" stroke="none" stroke-width="1" stroke-linecap="butt" stroke-linejoin="miter" stroke-miterlimit="10" stroke-dasharray="" stroke-dashoffset="0" font-family="none" font-weight="none" font-size="none" text-anchor="none" style="mix-blend-mode: normal"><g transform="scale(5.12,5.12)"><path d="M2.14063,8.41602c-0.59418,-0.0381 -1.12637,0.4618 -1.0625,1.0918c1.264,12.47 17.50048,32.69475 34.89648,33.46875c0.561,0.025 1.02539,-0.43995 1.02539,-1.00195v-0.03125c0,-0.502 -0.36819,-0.93728 -0.86719,-0.98828c-7.914,-0.798 -19.76205,-12.167 -20.12305,-27.25c-0.011,-0.422 -0.27673,-0.79373 -0.67773,-0.92773l-12.93359,-4.31055c-0.08588,-0.02862 -0.17293,-0.04534 -0.25781,-0.05078zM47.85742,8.41992c-0.08504,0.00557 -0.17156,0.02203 -0.25781,0.05078l-12.92969,4.30859c-0.4,0.13 -0.66969,0.50164 -0.67969,0.93164c-0.19,7.78 -3.43109,14.56969 -7.62109,19.42969c1.35,1.41 2.7907,2.6093 4.2207,3.5293c10.03,-7.15 17.49008,-18.87016 18.33008,-27.16016c0.06125,-0.63 -0.46723,-1.12881 -1.0625,-1.08984zM19.34961,39.05078c-1.91,1.08 -3.78047,1.74016 -5.48047,1.91016c-0.5,0.05 -0.86914,0.47852 -0.86914,0.97852v0.03125c0,0.57 0.4593,1.02977 1.0293,1.00977c2.93,-0.13 5.83086,-0.81969 8.63086,-1.92969c-1.13,-0.6 -2.23055,-1.28 -3.31055,-2z"></path></g></g></svg>