<?xml version="1.0" standalone="no"?>
<!DOCTYPE svg PUBLIC "-//W3C//DTD SVG 20010904//EN"
 "http://www.w3.org/TR/2001/REC-SVG-20010904/DTD/svg10.dtd">
<svg version="1.0" xmlns="http://www.w3.org/2000/svg"
 width="64.000000pt" height="64.000000pt" viewBox="0 0 64.000000 64.000000"
 preserveAspectRatio="xMidYMid meet">

<g transform="translate(0.000000,64.000000) scale(0.100000,-0.100000)"
fill="#000000" stroke="none">
<path d="M11 631 c-12 -8 -13 -16 -4 -44 7 -22 7 -40 1 -51 -6 -10 -7 -29 -3
-44 7 -25 8 -25 15 -7 5 11 6 30 3 43 -3 12 -1 22 3 21 21 -4 26 2 14 16 -19
23 -3 31 19 11 11 -10 17 -25 14 -34 -5 -11 -3 -13 7 -7 9 5 11 4 6 -4 -4 -6
-16 -9 -26 -6 -12 4 -19 -1 -23 -16 -3 -13 -3 -27 1 -33 4 -6 7 -13 7 -16 0
-9 30 -47 38 -49 4 0 13 -1 20 -1 6 0 3 -6 -7 -12 -15 -9 -21 -8 -24 2 -8 23
-41 50 -55 44 -8 -3 -14 -19 -15 -37 -1 -26 1 -29 9 -14 12 21 29 22 29 1 0
-9 -5 -12 -13 -8 -6 4 -4 -2 5 -13 10 -11 18 -29 18 -41 0 -12 5 -21 12 -19 6
1 13 -7 15 -18 l3 -20 -10 20 c-9 17 -10 15 -6 -10 3 -17 0 -37 -5 -45 -8 -11
-9 -9 -5 10 3 14 3 19 0 13 -9 -21 -24 -15 -24 10 -1 20 -2 20 -11 4 -12 -20
-1 -67 11 -48 4 8 11 3 18 -16 15 -36 12 -75 -5 -69 -7 3 -16 0 -20 -7 -5 -7
-10 9 -14 38 -4 33 -6 13 -6 -62 l-1 -113 319 0 319 0 -1 252 c-1 156 -5 258
-11 266 -7 8 -7 12 1 12 6 0 11 4 11 10 0 5 -6 7 -13 4 -18 -7 -37 15 -37 42
0 4 -6 1 -14 -5 -12 -10 -12 -21 -1 -67 7 -30 9 -57 4 -59 -9 -6 -23 34 -15
42 3 4 -1 14 -10 24 -17 19 -9 44 22 70 13 11 18 11 21 2 7 -20 43 4 43 27 0
26 -37 27 -57 3 -10 -14 -13 -14 -11 -3 3 13 -26 15 -199 17 -186 2 -201 1
-196 -15 6 -16 5 -16 -14 1 -11 9 -31 17 -44 17 -20 0 -24 -5 -24 -25 2 -26
25 -61 25 -37 0 7 -5 12 -11 12 -5 0 -7 5 -4 10 4 7 13 7 26 0 13 -7 19 -7 19
0 0 5 -5 10 -11 10 -5 0 -8 4 -4 10 3 5 15 0 27 -12 14 -14 23 -18 26 -10 2 7
8 12 13 12 6 0 7 -4 4 -10 -3 -5 -1 -10 5 -10 6 0 8 -5 4 -12 -4 -7 -3 -8 4
-4 6 4 9 13 6 21 -9 21 26 26 166 23 69 -2 133 1 144 6 10 5 -8 -18 -41 -51
-57 -57 -58 -60 -39 -75 19 -14 19 -18 6 -74 -7 -32 -14 -70 -16 -84 -1 -14
-10 -41 -21 -60 -11 -19 -22 -45 -26 -58 -7 -30 -88 -172 -98 -172 -9 0 -29
80 -29 116 0 55 -100 251 -125 246 -10 -2 -14 1 -10 7 3 6 0 11 -7 12 -7 0 -6
3 4 7 15 6 12 10 -13 25 -26 14 -30 15 -26 3 8 -20 -13 -32 -24 -15 -12 19
-11 32 1 24 6 -3 10 -1 10 4 0 6 -7 11 -15 11 -8 0 -15 5 -15 11 0 6 7 8 16 5
11 -4 22 1 31 14 8 11 18 18 22 16 4 -3 18 4 30 15 13 12 29 18 38 15 13 -5
14 -4 3 9 -16 19 -34 19 -50 0 -8 -10 -21 -13 -33 -9 -14 5 -18 3 -12 -7 4 -8
-8 1 -26 19 -33 32 -33 34 -15 48 19 14 19 14 -5 14 -13 0 -30 -4 -38 -9z
m539 -156 c0 -17 -2 -17 -10 -5 -5 8 -10 24 -10 35 0 17 2 17 10 5 5 -8 10
-24 10 -35z m-380 -126 c0 -7 -3 -9 -7 -6 -3 4 -11 3 -17 -2 -8 -6 -11 1 -11
24 0 32 1 33 18 15 9 -11 17 -25 17 -31z m-80 21 c-12 -22 -1 -27 17 -9 9 9
11 8 9 -4 -1 -9 -5 -20 -9 -23 -4 -4 -3 -12 2 -18 6 -7 3 -16 -6 -25 -13 -12
-14 -11 -8 8 4 14 2 23 -8 27 -23 8 -28 42 -9 54 23 13 24 13 12 -10z m508 2
c5 -17 -13 -15 -27 2 -10 12 -9 14 5 12 10 -2 20 -8 22 -14z m21 -38 c-9 -11
-9 -14 1 -14 8 0 11 -3 7 -6 -11 -12 -25 6 -20 26 3 11 9 17 15 14 5 -3 4 -12
-3 -20z m-421 -29 c3 -3 -9 -5 -26 -5 -17 0 -33 4 -36 9 -6 9 53 5 62 -4z
m-168 -222 c-11 -17 -11 -17 -6 0 3 10 6 24 7 30 0 9 2 9 5 0 3 -7 0 -20 -6
-30z"/>
<path d="M355 570 c3 -5 15 -10 26 -10 11 0 17 5 14 10 -3 6 -15 10 -26 10
-11 0 -17 -4 -14 -10z"/>
<path d="M615 569 c-9 -14 -2 -20 14 -10 8 6 9 11 3 15 -6 3 -14 1 -17 -5z"/>
<path d="M291 508 c-18 -6 -22 -13 -17 -31 3 -12 9 -40 13 -62 6 -39 49 -128
83 -171 16 -21 16 -21 26 12 11 33 9 37 -36 88 -43 49 -48 60 -48 103 l0 48
44 0 c23 0 49 6 56 13 10 10 2 12 -42 11 -31 -1 -66 -6 -79 -11z"/>
<path d="M100 501 c0 -5 7 -15 17 -22 15 -13 15 -12 4 9 -12 23 -21 28 -21 13z"/>
<path d="M213 503 c9 -2 23 -2 30 0 6 3 -1 5 -18 5 -16 0 -22 -2 -12 -5z"/>
<path d="M203 443 c-21 -8 -15 -33 12 -45 19 -8 28 -8 40 2 36 30 -4 63 -52
43z"/>
<path d="M335 420 c-10 -16 4 -30 31 -30 17 0 24 5 24 20 0 15 -7 20 -24 20
-14 0 -28 -4 -31 -10z"/>
<path d="M4 356 c-3 -8 -4 -27 -2 -43 3 -23 5 -20 9 15 5 43 2 53 -7 28z"/>
<path d="M20 333 c0 -13 5 -23 10 -23 13 0 13 11 0 30 -8 12 -10 11 -10 -7z"/>
<path d="M30 193 c0 -4 5 -15 10 -23 8 -13 10 -13 10 2 0 9 -4 20 -10 23 -5 3
-10 3 -10 -2z"/>
</g>
</svg>
